<svg xmlns="http://www.w3.org/2000/svg" xmlns:xlink="http://www.w3.org/1999/xlink" version="1.1" id="Layer_1" x="0px" y="0px" width="100%" viewBox="0 0 2000 2000" enable-background="new 0 0 2000 2000" xml:space="preserve">
<path fill="#FEFEFE" opacity="1.000000" stroke="none" d=" M1127.000000,2001.000000   C752.833313,2001.000000 379.166656,2000.993408 5.500025,2001.093018   C1.750922,2001.093994 0.906737,2000.249023 0.907281,1996.500000   C1.003694,1332.833374 1.003694,669.166687 0.907281,5.500014   C0.906737,1.751003 1.751000,0.906735 5.500013,0.907280   C669.166687,1.003704 1332.833374,1.003704 1996.500000,0.907280   C2000.249023,0.906735 2001.093262,1.751001 2001.092651,5.500013   C2000.996338,669.166687 2000.996216,1332.833374 2001.092651,1996.500000   C2001.093140,2000.249023 2000.249146,2001.094482 1996.500000,2001.093140   C1706.833374,2000.991455 1417.166626,2001.000000 1127.000000,2001.000000  z"/>
<path fill="#f9fff5" opacity="1.000000" stroke="none" d=" M1554.798950,1113.237305   C1555.968140,1113.131714 1557.127686,1112.972290 1557.536377,1113.452271   C1564.224609,1121.307129 1574.044067,1124.504028 1582.133667,1130.225952   C1589.946899,1135.752441 1598.228760,1140.759644 1604.700317,1148.085571   C1607.759277,1151.548462 1612.247681,1153.335205 1615.912231,1156.166138   C1618.373291,1158.067261 1621.436157,1158.962524 1622.376953,1162.439209   C1622.717651,1163.698608 1624.033813,1163.928101 1625.250244,1164.031616   C1627.106201,1164.189331 1628.483154,1165.450928 1629.157837,1166.859619   C1632.062744,1172.924561 1637.289551,1177.000610 1641.884644,1181.457520   C1653.721680,1192.939087 1662.919678,1206.456787 1672.848022,1219.448853   C1677.061035,1224.962158 1680.145752,1231.245239 1683.528442,1237.056274   C1685.859375,1241.060547 1687.836304,1246.206909 1690.002930,1250.780273   C1696.552368,1264.604126 1701.406982,1279.030762 1703.842773,1294.027222   C1704.757446,1299.659058 1708.180664,1305.888672 1704.040405,1311.807129   C1707.194824,1317.659180 1703.609985,1323.821289 1704.502319,1329.302979   C1705.818970,1337.390381 1703.413696,1344.413940 1702.260986,1351.904785   C1700.045166,1366.305786 1693.378296,1379.298584 1689.475098,1393.171753   C1688.199951,1397.704346 1684.065674,1401.512573 1681.744019,1406.085083   C1678.107056,1413.247803 1673.198242,1419.751831 1669.201050,1426.747803   C1665.130371,1433.872559 1659.088501,1439.369385 1654.285645,1445.852051   C1649.947021,1451.708130 1644.506836,1456.556641 1639.354614,1461.435059   C1632.213745,1468.196655 1625.252319,1475.214355 1617.759033,1481.639526   C1612.278809,1486.338745 1606.517578,1490.641113 1601.498779,1496.019165   C1597.252686,1500.569336 1591.032959,1503.337646 1585.533325,1506.639404   C1581.049927,1509.331421 1577.748169,1513.482300 1572.874146,1515.781860   C1564.000122,1519.968262 1556.795898,1526.831299 1547.530396,1530.854126   C1541.320801,1533.549927 1535.069824,1537.455933 1529.218384,1541.379883   C1523.838257,1544.987671 1518.128784,1548.694946 1512.513428,1551.032959   C1504.465942,1554.383911 1496.631592,1558.376587 1488.397705,1561.329346   C1487.302979,1561.721924 1485.962769,1561.811646 1485.136719,1562.513306   C1474.694336,1571.381226 1460.182373,1571.101074 1449.009155,1578.848999   C1444.253784,1582.146606 1437.246338,1582.556396 1431.435181,1584.900391   C1429.168701,1585.814697 1426.768433,1586.290161 1424.576904,1587.598145   C1418.715576,1591.096802 1411.774780,1591.543945 1405.515503,1593.978271   C1403.830200,1594.633667 1401.876953,1594.669312 1400.272583,1595.452393   C1391.128662,1599.916260 1381.035278,1601.434448 1371.559326,1604.879272   C1354.938843,1610.921387 1337.406494,1613.703613 1320.512573,1618.760498   C1305.694702,1623.195801 1290.331421,1625.042480 1275.393311,1628.881592   C1266.790649,1631.092407 1258.110962,1633.762207 1249.340576,1634.347046   C1240.736450,1634.920654 1232.467041,1637.008667 1224.060547,1638.257202   C1215.784180,1639.486206 1207.415894,1641.242188 1199.163818,1642.301514   C1193.105347,1643.079224 1186.756226,1643.872437 1180.648804,1644.592773   C1176.831421,1645.043091 1172.327148,1643.812378 1168.639893,1646.490967   C1166.190552,1648.270264 1163.117554,1646.563477 1160.262817,1646.991211   C1155.679688,1647.677979 1150.716064,1650.270996 1145.803101,1647.917358   C1145.502808,1647.773682 1145.026001,1647.440186 1144.918701,1647.531738   C1140.614014,1651.205688 1135.338257,1648.382935 1130.532349,1649.644287   C1124.932251,1651.114136 1118.794556,1651.030640 1112.929810,1650.760864   C1110.473389,1650.647705 1107.991577,1649.427490 1105.894897,1651.238892   C1102.730591,1653.972656 1099.466187,1653.283936 1096.134399,1652.022583   C1094.548096,1651.422241 1093.129150,1650.548462 1091.541870,1651.992432   C1087.910522,1655.295898 1083.854004,1654.371826 1079.884399,1652.895630   C1077.936157,1652.171021 1075.930664,1651.317993 1074.177856,1652.605835   C1068.846436,1656.522705 1063.372681,1655.535645 1057.791382,1653.511719   C1055.515137,1652.686279 1052.623535,1652.160767 1050.999878,1653.355591   C1044.273682,1658.304932 1036.697632,1656.188354 1029.764893,1655.677856   C1020.941772,1655.027954 1012.160461,1655.394653 1003.373535,1654.996216   C988.561646,1654.324463 973.804382,1656.026245 959.007324,1655.993896   C956.668945,1655.988770 954.472107,1656.050171 952.530151,1654.174561   C950.367126,1652.085449 947.274353,1652.473999 944.937073,1653.333374   C938.924133,1655.544067 933.282776,1656.490112 927.595825,1652.495972   C925.834595,1651.259155 923.818237,1652.310303 921.882812,1652.989868   C918.077881,1654.325684 914.138489,1655.266724 910.654907,1652.143066   C909.107849,1650.755859 907.732056,1651.212891 906.089417,1651.920898   C902.598022,1653.425781 899.088562,1654.039429 895.920776,1651.071167   C895.684692,1650.850098 895.290039,1650.539917 895.063965,1650.604248   C888.957397,1652.342651 882.885132,1649.230591 876.793213,1650.497925   C876.473145,1650.564575 876.060120,1650.923950 875.880676,1650.819580   C870.951355,1647.954102 865.062073,1650.841553 860.111633,1648.172363   C859.527588,1647.857300 858.587402,1647.184204 858.367676,1647.362305   C853.918579,1650.967285 849.166992,1647.639160 844.732910,1647.516235   C840.703552,1647.404541 836.279358,1647.211548 832.203064,1645.822021   C828.615601,1644.599243 824.775574,1645.239746 821.013123,1644.419556   C816.873657,1643.517334 812.446533,1643.594360 808.239075,1642.407837   C805.521057,1641.641357 802.536621,1641.787231 799.840210,1641.534424   C791.483582,1640.750366 783.422913,1637.925903 775.243591,1637.571167   C767.738342,1637.245728 760.885986,1634.245605 753.283691,1634.311035   C748.161621,1634.355347 742.670837,1632.282227 737.407471,1631.197021   C726.226440,1628.892090 715.193298,1625.901367 703.940735,1623.905273   C698.779053,1622.989624 693.597229,1622.118530 688.470276,1621.115234   C680.918274,1619.637329 673.600769,1616.982666 666.156616,1614.926270   C657.718384,1612.595215 649.235901,1610.496460 640.672119,1608.609985   C633.271851,1606.979736 626.328003,1602.792358 618.733215,1601.463867   C606.778992,1599.372803 596.493530,1592.504883 584.483521,1590.418457   C578.311340,1589.346191 572.491821,1585.966309 566.664917,1583.297485   C563.598022,1581.892456 560.401184,1580.658569 557.207275,1580.368286   C553.304932,1580.013916 550.040161,1578.106934 547.240479,1576.240356   C541.235229,1572.236816 534.621826,1570.613403 527.869934,1569.019653   C526.915771,1568.794556 525.697144,1568.858765 525.051392,1568.283447   C516.266724,1560.457275 504.790771,1557.971924 494.638580,1552.879761   C482.621826,1546.852417 470.801514,1540.506958 459.448853,1533.287598   C455.047333,1530.488770 450.388580,1528.117310 445.248291,1526.876465   C444.609619,1526.722290 443.757324,1526.586670 443.432007,1526.134399   C439.922729,1521.257568 434.565826,1518.902710 429.579834,1516.172119   C422.385529,1512.232178 416.821503,1506.092407 409.195221,1502.512573   C403.628418,1499.899414 399.454285,1494.338379 394.625061,1490.130615   C387.191772,1483.654053 379.290070,1477.644165 372.388824,1470.645874   C363.560089,1461.692383 354.022064,1453.465820 346.007019,1443.621582   C340.998993,1437.470581 335.519501,1431.657837 331.487488,1424.835815   C326.803375,1416.910522 321.276215,1409.441772 317.828705,1400.808838   C317.705261,1400.499634 317.617340,1400.154297 317.417419,1399.901123   C309.868591,1390.342163 308.453217,1378.297363 304.024048,1367.480225   C300.888733,1359.822998 299.351746,1351.825928 297.713501,1343.976196   C296.883728,1339.999878 295.770294,1335.371948 297.290894,1330.376221   C299.015320,1324.710693 293.952026,1318.078857 297.966400,1311.961914   C293.898315,1303.807617 298.983307,1296.319824 299.731934,1288.524048   C300.730774,1278.123047 305.727692,1268.820923 308.280487,1258.859009   C309.693573,1253.344727 313.011871,1249.192749 315.846924,1244.622070   C316.194031,1244.062378 316.626312,1243.536621 316.870880,1242.934937   C325.830841,1220.893555 337.884094,1207.497070 350.598053,1191.632446   C356.465698,1184.310791 364.656128,1179.188965 369.597626,1171.451660   C372.969971,1166.171265 379.181183,1164.418945 381.981506,1158.792358   C383.286469,1156.170288 386.986938,1155.072876 389.530182,1153.624756   C397.546204,1149.060425 402.809906,1141.273560 410.640289,1136.697510   C416.997894,1132.982300 422.464386,1127.972534 429.288208,1124.847412   C433.172729,1123.068481 436.819305,1120.343994 440.391937,1117.860229   C447.572235,1112.868530 455.137329,1108.637451 463.004669,1104.959961   C467.707184,1102.761963 471.476562,1099.300781 475.828979,1096.660400   C482.967865,1092.329590 490.274048,1088.276733 498.011932,1085.170166   C499.941010,1084.395630 502.348907,1084.233276 503.976868,1082.929321   C509.015198,1078.893799 515.379333,1076.536377 520.946838,1074.901123   C527.302246,1073.034546 532.061584,1067.448853 539.049072,1067.822144   C544.091553,1061.337280 553.081909,1063.763916 559.065796,1058.892456   C561.662476,1056.778442 565.962402,1057.097778 569.282288,1055.417236   C579.199768,1050.396729 590.447693,1048.954346 600.825928,1044.081543   C602.270081,1045.530273 601.727417,1046.970947 601.222778,1048.381836   C595.936401,1063.161377 596.238098,1078.447632 597.569458,1093.708374   C598.654236,1106.143311 601.054749,1118.407227 603.984070,1130.564575   C609.486450,1153.401001 619.880188,1173.894897 633.360107,1192.960327   C644.944275,1209.344360 658.777893,1223.723755 673.056519,1237.716919   C675.547546,1240.158203 678.201721,1242.462036 680.403442,1245.662720   C681.582581,1248.277344 681.540588,1251.439941 685.531616,1251.650513   C697.045776,1261.991577 696.704834,1275.032959 684.702454,1285.034424   C683.346680,1285.455688 682.349243,1285.771484 682.065430,1287.411377   C680.579651,1289.499268 678.703186,1290.630859 677.010437,1291.969971   C667.709534,1299.327637 663.878235,1311.629761 667.615540,1322.940308   C672.151428,1336.667969 681.898682,1346.357910 692.947266,1354.970459   C707.610535,1366.400879 724.586365,1372.457031 742.503723,1376.425781   C760.160828,1380.336914 778.101440,1381.785156 796.068481,1381.411865   C806.659546,1381.191895 817.375183,1381.125488 827.912781,1379.310303   C829.389709,1379.055664 830.870361,1378.755615 832.712402,1379.447754   C835.377441,1384.413452 835.764648,1389.806763 837.937134,1395.019897   C838.110291,1398.026733 836.163208,1399.094971 834.348877,1400.310547   C831.441895,1402.258301 828.144043,1403.549805 825.342834,1405.657593   C821.950989,1408.209839 821.894043,1410.303833 825.460999,1412.598267   C830.073853,1415.565308 834.941528,1418.126221 839.700684,1420.858887   C845.758484,1424.337402 851.858459,1427.741699 857.845032,1431.343872   C862.300720,1434.024902 867.006592,1434.588257 871.642883,1432.129761   C877.948059,1428.786377 884.275696,1425.442383 890.287109,1420.889160   C890.771423,1420.518066 890.976379,1420.384033 891.508667,1420.082520   C904.281006,1414.554810 915.511353,1406.985840 927.198425,1400.271118   C976.315308,1372.051270 1025.377075,1343.734253 1074.399780,1315.350952   C1117.944580,1290.139282 1161.617310,1265.149048 1205.091064,1239.814087   C1210.121216,1236.882935 1215.041870,1233.728027 1220.745850,1231.350342   C1222.073608,1231.286255 1223.197144,1231.597778 1223.820190,1229.959961   C1227.020264,1226.445923 1231.145874,1224.906128 1234.837280,1222.745972   C1248.070801,1215.001831 1254.147095,1203.251831 1254.709351,1188.265259   C1254.789795,1186.122192 1254.488892,1183.948975 1255.396973,1181.538940   C1258.340698,1180.447876 1258.399414,1182.947876 1258.967896,1184.329590   C1261.189941,1189.730713 1263.927612,1194.875610 1266.421753,1200.140991   C1267.828003,1203.109619 1269.586792,1203.520508 1272.366943,1201.907959   C1277.397217,1198.990356 1282.194458,1195.627075 1288.034546,1193.500366   C1290.887695,1192.757446 1294.400391,1194.195312 1295.408447,1189.806885   C1298.825928,1185.810913 1303.238159,1183.950439 1307.999512,1182.021729   C1309.440063,1181.724854 1310.546021,1181.520142 1311.403320,1180.147461   C1313.697510,1177.612061 1316.418335,1176.269653 1319.014526,1174.801392   C1337.110596,1164.566528 1348.041870,1148.275269 1356.858154,1130.188232   C1357.663330,1128.536133 1358.035156,1126.714111 1358.351807,1124.909302   C1359.724121,1117.083252 1355.670776,1112.741211 1347.671265,1113.428833   C1347.006714,1113.485962 1346.352051,1113.616455 1345.691772,1113.704468   C1338.127563,1114.714600 1334.468140,1111.055176 1335.331909,1103.296631   C1336.436157,1093.379395 1339.829712,1084.149292 1344.579468,1075.505615   C1348.695923,1068.014526 1352.119873,1060.298096 1354.728027,1052.185425   C1356.947021,1045.283325 1357.906372,1038.525024 1352.807251,1032.000854   C1354.838745,1029.219360 1357.290771,1029.741455 1359.732300,1030.465820   C1372.276978,1034.187500 1384.639038,1038.606445 1397.217773,1042.059326   C1406.279297,1044.546753 1414.675659,1049.351807 1424.288940,1049.932373   C1426.597534,1050.071777 1428.696045,1051.316406 1431.076782,1052.656250   C1432.840698,1059.141602 1430.766235,1065.135620 1430.007324,1071.144897   C1424.380005,1115.705811 1418.455933,1160.229248 1412.700928,1204.774292   C1411.579468,1213.455933 1413.671631,1221.587036 1417.293335,1229.465576   C1425.702637,1247.759033 1433.794800,1266.195679 1441.866455,1284.640503   C1442.267456,1285.556885 1442.615845,1286.491577 1442.861084,1287.846680   C1443.118042,1289.374634 1442.017334,1290.842773 1444.014893,1291.832031   C1448.225464,1297.297729 1449.982788,1303.624512 1452.574707,1309.518799   C1461.601196,1330.045532 1470.798462,1350.498169 1479.583008,1371.132935   C1482.246338,1377.388916 1485.015259,1383.619263 1488.093384,1390.144531   C1489.448486,1393.045532 1490.291504,1395.706299 1491.182007,1398.349365   C1492.237671,1401.482666 1490.978394,1403.131836 1487.813477,1403.296997   C1482.733154,1403.562012 1477.646484,1403.595703 1472.160767,1403.174072   C1466.351318,1402.194580 1460.948364,1401.258911 1455.434082,1401.334839   C1453.764648,1401.357788 1452.092407,1401.400146 1450.481689,1401.872803   C1447.382812,1402.782227 1444.115601,1403.876709 1443.407471,1407.421021   C1442.749756,1410.712646 1445.694092,1412.404419 1447.852173,1414.105957   C1452.889282,1418.077393 1458.696289,1420.585205 1464.848022,1422.291870   C1478.325684,1426.031128 1491.885742,1429.480591 1505.194824,1433.808960   C1508.155518,1434.771729 1511.073975,1434.768555 1514.006592,1433.692383   C1519.165283,1431.799316 1520.950806,1428.667847 1519.912354,1423.251953   C1518.737305,1417.123291 1518.691040,1417.012573 1524.224609,1414.701904   C1528.053223,1413.103027 1529.491943,1410.440796 1528.987671,1406.427490   C1528.467529,1402.287720 1527.526855,1398.231934 1526.696411,1393.736328   C1526.208008,1386.366943 1527.263428,1379.529907 1528.446045,1372.270996   C1531.662964,1351.101318 1535.443237,1330.461182 1538.690918,1309.734497   C1542.634521,1284.567261 1546.892700,1259.448608 1550.172119,1234.178467   C1551.828369,1221.416016 1549.041870,1209.645508 1542.565918,1198.731689   C1540.023682,1194.447144 1539.429321,1190.246216 1540.230591,1185.382080   C1543.966187,1162.702881 1549.619019,1140.381348 1552.789062,1117.600464   C1552.997681,1116.101685 1553.440552,1114.673950 1554.798950,1113.237305  z"/>
<path fill="#385A64" opacity="1.000000" stroke="none" d=" M1222.266602,1231.941406   C1205.811646,1241.176025 1189.599609,1250.317383 1173.479248,1259.617676   C1082.561401,1312.069824 991.668396,1364.565552 900.745605,1417.009521   C898.167542,1418.496582 895.350830,1419.569946 892.282532,1420.816895   C886.039490,1421.017700 882.701599,1418.578491 881.049622,1412.820557   C880.256714,1410.057007 880.373535,1407.209595 880.373474,1404.380737   C880.364929,1138.510498 880.372986,872.640198 880.327942,606.769897   C880.326843,600.128784 881.409363,593.855286 884.670593,587.566895   C891.174072,575.154724 903.040405,569.997437 913.952576,563.696106   C958.515625,537.962646 1003.067749,512.210144 1047.634888,486.483856   C1088.880981,462.674591 1130.084961,438.791382 1171.384399,415.075714   C1192.613525,402.885254 1213.724487,390.494537 1234.936646,378.276855   C1237.819702,376.616302 1240.706055,374.988129 1244.186401,374.772095   C1247.902954,374.541382 1251.151733,375.218781 1253.684814,378.733398   C1255.647095,382.892090 1255.810181,387.031616 1255.812012,391.182434   C1255.832031,437.558472 1255.838379,483.934509 1255.917725,530.792236   C1256.163330,532.394287 1255.615845,533.320190 1254.736572,533.724365   C1249.678589,536.049622 1245.755493,540.787354 1239.414307,540.520142   C1237.807983,531.398682 1238.886353,522.560425 1238.567383,513.754761   C1238.440796,510.260071 1238.778076,506.746674 1238.343384,503.265961   C1237.439941,496.036377 1234.205200,494.291718 1227.829346,497.784058   C1218.476685,502.906982 1209.344360,508.421539 1200.109375,513.753601   C1109.777710,565.908325 1019.481995,618.124939 929.093689,670.181396   C923.607544,673.341003 918.199036,676.641479 912.659973,679.706482   C903.700806,684.664124 899.327820,691.818298 899.342651,702.407776   C899.505127,818.222778 899.444946,934.037964 899.444763,1049.853149   C899.444641,1128.840820 899.444763,1207.828369 899.445007,1286.816040   C899.445007,1288.482422 899.412170,1290.149536 899.460205,1291.815063   C899.671997,1299.159302 903.433472,1301.338379 909.915588,1297.624146   C924.227905,1289.423462 938.471375,1281.102661 952.797729,1272.925781   C954.382385,1272.021362 955.889832,1270.932373 958.178589,1270.658447   C960.948792,1272.313110 960.289368,1274.839355 960.308533,1277.058716   C960.397705,1287.365479 960.345276,1297.673340 960.348450,1307.980835   C960.348938,1309.477051 960.306885,1310.974731 960.382507,1312.468994   C960.833557,1321.378296 966.724792,1325.024658 974.717102,1321.062256   C982.462708,1317.222046 989.725891,1312.492188 997.208923,1308.168213   C1010.448486,1300.518066 1023.810608,1293.079224 1036.917358,1285.198853   C1038.766846,1284.086670 1040.661377,1283.031128 1043.162109,1282.430664   C1045.808105,1282.538818 1046.355957,1284.428223 1047.220337,1286.008179   C1051.271362,1293.413208 1056.963989,1295.482666 1064.698486,1292.146240   C1077.218628,1286.745483 1083.802246,1276.161377 1088.730713,1264.201904   C1089.873535,1261.428711 1090.516724,1258.499756 1091.301025,1255.230103   C1093.899536,1251.733765 1097.599121,1250.412231 1100.881592,1248.504883   C1150.509155,1219.668335 1200.304688,1191.122437 1250.006714,1162.414795   C1250.871094,1161.915527 1251.706787,1161.362915 1252.629150,1160.972656   C1255.296631,1159.844482 1257.032471,1160.754883 1257.081909,1163.603394   C1257.179199,1169.218140 1258.063232,1174.879395 1256.243530,1180.719849   C1255.533447,1188.389282 1256.356201,1195.906860 1253.488892,1203.046509   C1249.988770,1211.761475 1244.759155,1218.913208 1236.234863,1223.384277   C1232.140625,1225.531982 1228.212891,1227.996948 1224.019043,1230.606934   C1223.594849,1231.476562 1223.127930,1231.767090 1222.266602,1231.941406  z"/>
<path fill="#739072" opacity="1.000000" stroke="none" d=" M833.207947,1379.657959   C818.019775,1381.814331 803.126587,1383.161621 788.194092,1382.715576   C759.601868,1381.861816 731.395630,1378.634521 705.606323,1364.873291   C691.369202,1357.276367 679.245178,1347.104492 670.673218,1333.179199   C661.859253,1318.860840 663.132568,1302.751831 673.893738,1292.708252   C676.300659,1290.461914 679.096680,1288.632690 681.864136,1286.311035   C682.135071,1285.798462 682.255554,1285.586304 682.707031,1285.218506   C695.189392,1274.776245 695.801025,1266.995972 685.312744,1252.140747   C682.605896,1251.343262 681.457581,1249.423950 680.206177,1247.145996   C671.985046,1238.706543 663.773621,1230.708374 655.922485,1222.370850   C633.801636,1198.879517 615.556519,1172.911133 605.791809,1141.740479   C600.087891,1123.532715 596.862244,1104.874146 595.784912,1085.796021   C594.992615,1071.764648 595.982727,1058.072388 601.169678,1044.485229   C606.490234,1033.668823 614.151245,1025.869019 625.492615,1022.157104   C635.498474,1018.882263 643.014221,1021.451355 649.143555,1030.377930   C656.702332,1041.386230 660.859497,1054.013794 665.927673,1066.197510   C668.290527,1071.877808 670.655029,1077.554932 675.580688,1081.535278   C683.198425,1087.690796 691.964050,1087.830933 701.448853,1085.944336   C707.973816,1081.988647 715.088501,1082.498047 721.829529,1081.666260   C726.853088,1081.046143 732.011169,1081.324097 737.535889,1081.768555   C739.898010,1082.259888 741.694763,1083.076538 743.927246,1083.883667   C763.806458,1091.808716 772.265137,1106.992432 773.371704,1127.188477   C773.680664,1132.826904 774.119812,1138.478516 775.122253,1144.040771   C777.537781,1157.442261 784.369080,1163.262573 798.067749,1163.619751   C804.769104,1163.794556 811.281250,1164.535278 817.542480,1167.246216   C825.177246,1170.551636 829.831665,1176.659546 833.990479,1183.925293   C834.611084,1186.135864 834.608093,1187.970581 834.609070,1189.799561   C834.629333,1227.568726 834.627625,1265.337769 834.612122,1303.106934   C834.611511,1304.604492 834.587891,1306.102417 834.255493,1308.012573   C832.649597,1312.139526 830.057312,1310.310791 827.886414,1309.505615   C818.169373,1305.901245 809.073853,1300.997559 800.101379,1295.866333   C783.420837,1286.327271 767.934326,1275.065796 752.964355,1263.064819   C748.956238,1259.851440 746.170044,1255.952148 744.808777,1250.849609   C739.379089,1230.496216 736.449829,1209.758667 734.616333,1188.816772   C733.803772,1179.535645 732.583984,1170.294678 732.554871,1160.951538   C732.548218,1158.821899 732.128601,1156.658203 730.903381,1153.728516   C729.971008,1157.225952 730.143677,1160.006226 730.374634,1162.668579   C732.806213,1190.691284 734.736816,1218.786743 741.862671,1246.168579   C742.342773,1248.013550 743.727051,1250.544800 741.803345,1251.731812   C739.838318,1252.944336 738.337830,1250.489502 736.908264,1249.218750   C698.329895,1214.927246 671.325500,1172.468750 649.951538,1126.024414   C646.063477,1117.575806 642.545227,1108.971313 638.701965,1100.404541   C638.080139,1102.326538 638.847717,1104.027954 639.491577,1105.687744   C655.892944,1147.970459 678.054443,1186.945435 707.310669,1221.653442   C728.825073,1247.177002 754.591248,1268.007812 782.061157,1286.782959   C790.085876,1292.267822 790.041809,1294.123657 781.293335,1298.515137   C771.869995,1303.245605 761.724487,1304.913940 751.310791,1305.289673   C746.555664,1305.461426 741.776855,1305.084106 735.830444,1305.655518   C744.833557,1309.208862 752.764771,1307.067261 760.564758,1306.309570   C770.630066,1305.331787 780.128906,1302.265015 788.480164,1296.275635   C790.678528,1294.698975 792.938782,1294.096069 795.458923,1295.534912   C807.188904,1302.232056 819.069397,1308.614502 831.932190,1312.942993   C832.728577,1313.210938 833.338928,1313.817749 833.932739,1314.974365   C835.060974,1320.142212 834.570435,1324.963501 834.593994,1329.757324   C834.663269,1343.847778 834.636841,1357.938721 834.603394,1372.029541   C834.597534,1374.497437 834.856201,1377.027466 833.207947,1379.657959  z"/>
<path fill="#1A2E35" opacity="1.000000" stroke="none" d=" M832.927368,1380.403809   C832.897034,1358.307739 832.943848,1336.622925 832.927246,1314.473877   C832.102539,1313.003052 831.933716,1311.908936 832.609924,1310.354248   C832.834290,1267.991577 832.828125,1225.999023 832.770752,1183.545898   C831.959412,1181.585083 831.462402,1179.983521 831.447205,1178.316162   C831.350342,1167.706665 831.257629,1157.096680 831.496094,1146.487915   C831.518555,1145.490479 831.763733,1144.518188 832.518616,1143.221191   C832.883118,1140.670166 832.972961,1138.506226 832.973145,1136.342163   C832.987549,950.213135 833.009460,764.084167 832.949707,577.955139   C832.947388,570.732239 834.550415,564.135498 838.521240,557.768677   C854.911072,566.552368 871.218567,575.192749 886.811646,585.678284   C883.473328,592.937805 881.896484,600.150940 881.900085,608.055847   C882.020447,874.156311 881.999756,1140.256836 882.001221,1406.357300   C882.001221,1415.536133 884.073853,1418.601807 891.666077,1420.563599   C891.766113,1420.865601 891.612549,1420.933350 891.237122,1421.119873   C883.739258,1425.083252 876.291016,1423.605591 869.226257,1421.123901   C860.403137,1418.024780 852.528625,1412.883423 845.097229,1407.242432   C841.519226,1404.526245 838.600159,1401.024414 837.269348,1396.083984   C835.325623,1390.868286 833.089478,1386.138794 832.927368,1380.403809  z"/>
<path fill="#4f6f52" opacity="1.000000" stroke="none" d=" M1442.221802,1290.132080   C1434.575806,1270.626587 1426.170654,1251.719482 1417.253418,1233.077271   C1411.389404,1220.817871 1410.330444,1208.553467 1412.337769,1195.372925   C1415.283081,1176.033813 1417.485229,1156.581665 1420.036987,1137.182129   C1422.220947,1120.579346 1424.468628,1103.984985 1426.654541,1087.382446   C1428.126343,1076.203369 1429.539551,1065.016724 1430.917480,1053.416260   C1429.478027,1051.216675 1430.003296,1049.230469 1430.288940,1047.294312   C1431.822876,1036.895752 1432.369629,1026.352783 1435.080566,1015.737793   C1438.076416,1013.538574 1440.430298,1015.563232 1442.767944,1016.389587   C1454.431763,1020.512329 1466.240601,1023.907288 1478.750244,1023.612976   C1495.611084,1023.216309 1510.465088,1017.021423 1524.044678,1007.388062   C1525.524658,1006.338135 1526.694458,1004.844238 1528.926025,1004.272583   C1533.373657,1005.183777 1534.103149,1009.234802 1536.610229,1012.140320   C1541.545776,1019.775635 1545.789673,1027.369507 1549.492554,1035.262817   C1550.253418,1036.884766 1551.346069,1038.393799 1551.219238,1040.666260   C1559.792358,1064.330444 1557.702026,1088.224854 1555.098633,1112.572021   C1550.487549,1138.012573 1545.791748,1163.026855 1541.184326,1188.057373   C1540.708984,1190.639648 1540.575806,1193.249756 1542.285278,1195.706055   C1552.190674,1209.938599 1553.490845,1225.654541 1550.695557,1242.305786   C1546.558228,1266.952271 1542.942505,1291.685791 1538.973633,1316.361084   C1536.035645,1334.626953 1532.889404,1352.859253 1529.724121,1371.507202   C1526.689453,1374.816772 1522.912720,1374.310059 1519.330200,1374.382568   C1512.367676,1374.523560 1512.367920,1374.467896 1512.277100,1381.129639   C1512.268066,1381.792969 1512.151245,1382.445190 1511.886230,1383.483398   C1506.455322,1390.854614 1495.374023,1394.119385 1487.445312,1390.719971   C1479.829346,1374.252441 1472.526733,1358.018066 1465.331909,1341.735962   C1458.059570,1325.278198 1450.894043,1308.773193 1443.375854,1292.109375   C1442.484131,1291.603638 1442.232788,1291.078003 1442.221802,1290.132080  z"/>
<path fill="#f9fff5" opacity="1.000000" stroke="none" d=" M506.754089,383.309082   C516.880920,379.341034 525.291626,372.959900 534.445923,367.941986   C539.655029,365.086609 539.450867,364.811218 540.042725,370.540405   C540.348206,373.497986 540.865356,376.433899 541.294312,379.378510   C541.778564,382.702271 543.294006,384.955688 546.624329,386.422424   C550.549011,388.150970 554.118530,390.689362 557.830811,392.895508   C560.808838,394.665314 563.033142,394.132263 564.957458,391.114929   C570.657898,382.176544 576.502502,373.330017 582.303894,364.456146   C584.318237,361.375000 586.381775,360.301239 590.001099,362.841064   C594.741272,366.167389 599.988525,368.778259 605.058411,371.624420   C607.694092,373.104034 608.294739,374.679871 606.780396,377.636871   C601.471680,388.002930 596.492126,398.537354 591.358337,408.993500   C590.933594,409.858582 589.817078,410.619354 590.451782,411.645691   C593.434082,416.467896 595.750977,421.574707 597.735962,426.883759   C598.365967,428.568573 600.050354,427.408081 601.219482,426.883301   C608.041382,423.821198 614.880188,420.794739 621.663208,417.648285   C626.681824,415.320282 626.987183,415.422546 627.004089,420.758331   C627.033142,429.923981 626.869629,439.093079 627.083252,448.253845   C627.166992,451.848297 625.866699,454.105164 622.954895,456.091583   C615.281616,461.326263 607.807983,466.852478 600.196899,472.179901   C598.288635,473.515533 597.445679,475.193298 596.870117,477.436249   C595.262939,483.698669 593.673096,490.015259 591.338562,496.023773   C589.786682,500.018066 591.162598,502.163483 593.998596,504.420135   C597.887390,507.514435 601.609985,510.816833 605.473145,513.944397   C607.599121,515.665527 608.123474,517.331787 606.617554,519.898254   C599.976196,531.216309 593.481689,542.621033 586.986816,554.024414   C585.796875,556.113586 584.354370,556.024048 582.371277,555.276245   C576.778870,553.167542 571.053894,551.396851 565.523682,549.143188   C563.295837,548.235291 561.865112,548.311340 560.345581,550.155212   C555.506165,556.027466 550.992920,562.155029 544.816772,566.860535   C541.618530,569.297241 542.584534,573.651428 542.140137,577.107422   C541.064758,585.470764 540.596436,593.916260 540.039856,602.338989   C539.920532,604.144226 538.985718,605.077759 537.680481,605.837891   C528.064209,611.438171 518.429016,617.006104 508.792877,622.572327   C508.026001,623.015320 507.210480,623.015381 506.195312,622.302063   C505.066742,614.345337 504.024689,606.663147 503.488373,598.919983   C503.107391,593.419739 502.434845,592.980835 497.161102,593.869690   C495.855988,594.089539 494.528290,594.482788 493.233490,594.306519   C487.784363,593.564697 483.972382,595.707947 481.291321,600.818481   C477.353424,602.599670 476.148590,606.307373 474.062683,609.140808   C470.527618,613.942993 467.478821,619.106567 464.290863,624.159363   C462.602173,626.835815 461.024841,627.667603 457.869904,625.662415   C451.570984,621.658813 444.909424,618.225830 438.191711,614.285889   C440.166382,607.873230 443.535461,602.297668 446.433777,596.504578   C449.120605,591.134277 451.243591,585.512207 454.015594,580.190796   C455.204041,577.909363 455.092896,575.730835 453.854492,573.528015   C452.221436,570.623413 450.553619,567.731506 449.665497,564.480835   C448.921051,561.756042 447.325043,561.841553 445.082397,562.812134   C439.284698,565.321106 433.746429,568.442261 427.330505,570.137207   C424.919617,570.666748 422.837982,571.333435 420.384338,572.007874   C418.985657,570.836975 418.517670,569.434143 418.491028,567.903015   C418.320923,558.127136 418.260803,548.350830 418.529236,538.575684   C418.556580,537.578613 418.840240,536.613770 419.661194,535.358582   C428.961792,528.807556 437.923645,522.625427 446.872437,516.424316   C447.768402,515.803528 447.982849,514.821899 447.957031,513.416138   C450.178894,505.911865 451.713806,498.559662 454.437103,491.579865   C455.430176,489.034576 454.889832,487.138733 453.029968,485.294952   C449.481110,481.776733 445.442139,478.826721 441.788910,475.431671   C440.579590,474.307831 439.075562,473.457336 438.863495,471.308167   C445.836731,459.288300 452.627075,447.574066 459.562531,435.946350   C461.426086,432.821930 460.321991,431.274780 457.501526,429.712158   C452.077240,426.706879 446.806061,423.425323 441.588837,419.880127   C445.599182,419.904602 449.155670,421.658112 452.835938,422.926208   C454.947205,423.653625 456.879761,425.292938 459.671936,424.126465   C466.619141,427.473602 473.023865,431.354614 479.421509,435.237549   C482.994110,437.405884 485.645172,437.315704 488.327484,433.653534   C491.073151,429.904938 494.595490,426.728241 498.091736,423.664581   C502.075104,420.174103 503.544922,415.821930 503.647156,410.811340   C503.820648,402.312134 505.421021,393.942291 505.857910,385.468964   C505.892700,384.793945 506.162476,384.178711 506.754089,383.309082  z"/>
<path fill="#739072" opacity="1.000000" stroke="none" d=" M1256.290039,1181.189941   C1255.937622,1175.675293 1255.729370,1170.347656 1255.895752,1165.031616   C1256.010986,1161.352295 1255.277100,1160.618652 1251.854980,1162.619629   C1231.048584,1174.785645 1210.149658,1186.793457 1189.281006,1198.853271   C1157.042114,1217.484131 1124.802612,1236.114258 1092.290283,1254.963135   C1087.532837,1259.739990 1081.675537,1262.178467 1076.277954,1265.310913   C1067.135254,1270.616455 1058.004272,1275.942627 1048.853638,1281.234253   C1047.567017,1281.977905 1046.312500,1282.806885 1044.406982,1282.889648   C1028.924561,1291.672974 1013.753723,1300.277100 998.606995,1308.923462   C991.100220,1313.208740 983.700623,1317.684937 976.139709,1321.871216   C966.549866,1327.181030 959.087585,1322.833618 959.017029,1311.958618   C958.930603,1298.648315 958.964905,1285.337280 958.900391,1271.566650   C956.943604,1268.797974 957.563416,1266.020752 957.560120,1263.421753   C957.514832,1227.256348 957.530273,1191.090942 957.530212,1154.925537   C957.530090,1011.097107 957.635254,867.268494 957.370544,723.440552   C957.343506,708.756165 962.979980,698.937988 975.558533,691.728333   C1032.666382,658.995972 1089.610107,625.976868 1146.627075,593.085510   C1175.496216,576.431824 1204.346436,559.745300 1233.201294,543.067017   C1234.928223,542.068848 1236.589600,540.914001 1239.103027,540.768921   C1244.883911,537.801086 1250.224609,534.784180 1255.776123,531.520630   C1266.804199,525.165222 1277.611938,519.039429 1288.447144,512.962524   C1290.601440,511.754272 1292.775391,510.492401 1295.088257,509.672760   C1301.262817,507.484528 1307.008423,510.996704 1308.006470,517.418091   C1308.184570,518.563049 1308.182983,519.743469 1308.182983,520.907471   C1308.179077,656.060425 1308.167603,791.213379 1308.084229,926.851685   C1302.914551,924.764343 1300.640869,920.072937 1298.746582,914.643921   C1298.522705,911.066833 1298.548706,907.900757 1298.548706,904.735046   C1298.549194,779.432556 1298.554688,654.130005 1298.514160,528.827515   C1298.513306,526.064697 1299.792358,522.285461 1297.371094,520.790833   C1294.609985,519.086365 1291.865723,522.196045 1289.378418,523.638611   C1224.667236,561.170349 1159.803589,598.438049 1095.045654,635.888672   C1056.827026,657.991089 1018.630920,680.134460 980.284302,702.014893   C972.329407,706.554016 968.378174,712.937134 968.382507,722.327942   C968.473022,917.113342 968.449585,1111.898804 968.458252,1306.684204   C968.458618,1314.202759 969.259888,1314.681030 975.946899,1310.789673   C991.355225,1301.822876 1006.824646,1292.962646 1022.265442,1284.052490   C1106.105713,1235.673706 1189.854492,1187.136353 1273.775024,1138.896362   C1278.396606,1136.239746 1282.884521,1133.337280 1287.619385,1130.890991   C1295.633789,1126.750610 1298.687500,1120.276001 1298.644775,1111.319458   C1298.434326,1067.164795 1298.545654,1023.008301 1298.557861,978.852478   C1298.558472,976.360718 1298.356689,973.850403 1299.133301,970.995361   C1301.279297,968.613831 1302.404785,970.519165 1303.083130,971.776733   C1305.186768,975.675598 1307.985596,979.231140 1309.229248,984.015381   C1309.627075,1007.689209 1309.293701,1030.954834 1309.477051,1054.912354   C1314.042480,1048.677002 1318.110107,1042.852295 1323.952881,1038.532227   C1330.270020,1033.861328 1337.204834,1030.961914 1344.944214,1029.910034   C1347.608032,1029.547852 1350.276733,1029.373047 1352.758789,1031.665771   C1360.049316,1037.266113 1358.113525,1044.222290 1356.403809,1050.989624   C1354.364990,1059.059326 1350.779541,1066.524170 1346.855591,1073.833862   C1341.898926,1083.067749 1337.917480,1092.623291 1336.537476,1103.156006   C1335.566284,1110.568115 1338.501709,1113.543213 1345.985352,1112.160156   C1356.370850,1110.241089 1361.994507,1116.360107 1359.206177,1126.577026   C1356.030884,1138.212769 1348.889893,1147.541016 1341.736694,1156.916016   C1333.883179,1167.208984 1323.582520,1174.272705 1312.125244,1180.457031   C1311.352539,1181.924438 1310.145264,1182.241577 1308.735107,1182.836670   C1304.011230,1184.389771 1300.442017,1187.368652 1296.168579,1189.659424   C1292.973022,1191.020996 1293.008423,1188.690308 1293.142822,1187.040283   C1293.857178,1178.258301 1294.833740,1169.502808 1296.227417,1160.795166   C1296.819702,1157.093750 1299.258545,1155.588257 1302.511597,1154.587646   C1312.297241,1151.577881 1321.382568,1147.149292 1329.432861,1140.750366   C1331.895630,1138.792847 1334.384644,1136.828125 1335.787598,1133.763184   C1334.434326,1133.222900 1333.991821,1134.388550 1333.439819,1134.965454   C1325.652588,1143.105835 1315.891968,1148.024048 1305.621338,1152.119385   C1303.582031,1152.932373 1301.334351,1153.803833 1299.436035,1152.300293   C1297.313843,1150.619507 1298.686157,1148.268921 1299.099365,1146.246582   C1299.961548,1142.025269 1300.599854,1137.734497 1302.425049,1133.593384   C1298.395752,1138.547974 1298.164673,1144.623413 1296.783203,1150.298462   C1295.957031,1153.692993 1295.655518,1157.203735 1294.823120,1160.589966   C1293.804321,1164.734619 1292.105713,1165.156738 1289.043335,1162.208862   C1287.109253,1160.347168 1285.835815,1157.973511 1284.301514,1155.801514   C1282.869995,1153.774902 1282.021362,1151.402344 1280.452393,1149.311401   C1280.735229,1153.713257 1283.525513,1159.206177 1289.288330,1164.654297   C1292.762085,1167.938477 1293.661865,1171.315918 1292.762085,1175.802979   C1291.881958,1180.191895 1292.335693,1184.764160 1291.364624,1189.180908   C1291.011353,1190.788086 1291.148926,1192.540039 1289.334473,1193.853882   C1283.131836,1197.286987 1277.214355,1200.484863 1271.445312,1203.931396   C1268.884033,1205.461670 1267.398560,1205.128906 1266.075684,1202.445312   C1262.668091,1195.532593 1259.234253,1188.637573 1256.290039,1181.189941  z"/>
<path fill="#3a4d39" opacity="1.000000" stroke="none" d=" M832.515381,1142.728027   C832.866577,1155.941284 832.898010,1169.048340 832.824585,1182.620361   C831.838928,1182.939331 831.257324,1182.457642 830.842346,1181.648804   C824.433655,1169.155396 813.191711,1165.423462 800.258057,1165.056885   C795.749023,1164.928833 791.310120,1164.649414 787.107422,1163.007935   C776.019165,1158.677734 774.094666,1148.910034 773.017578,1138.744141   C771.855164,1127.771973 771.984619,1116.634888 767.201355,1106.243896   C762.458923,1095.941650 754.173706,1089.825073 744.044434,1085.056885   C741.874451,1083.620117 741.507446,1081.613770 741.091370,1079.657593   C737.549622,1063.009155 735.656006,1046.166138 734.326965,1029.196533   C733.048462,1012.871460 733.586426,996.565918 733.541138,980.255310   C733.486450,960.581055 735.383606,941.024658 738.170959,921.554321   C738.444824,919.641296 739.193481,917.733154 738.329590,914.966858   C736.097351,922.865417 735.507874,930.311768 734.760925,937.678589   C732.677979,958.221863 731.134705,978.833557 731.610474,999.485107   C732.197571,1024.962036 733.832458,1050.384155 738.909729,1075.453125   C739.368591,1077.718628 740.144531,1079.981812 739.146057,1082.692505   C726.678223,1082.429199 714.622253,1083.339966 702.285339,1085.938232   C690.075195,1052.122925 684.882385,1017.296021 687.169434,981.614502   C688.914734,954.383789 694.254211,927.883850 711.468994,905.545715   C723.490295,889.946777 739.307556,882.765320 759.170776,886.998474   C772.725952,889.887207 779.544373,899.953735 783.956238,911.938843   C790.344421,929.292969 791.325500,947.518738 792.245300,965.785706   C793.896484,998.578491 791.858276,1031.392090 793.093567,1064.171021   C793.933838,1086.466919 797.830261,1108.053101 811.665527,1126.516479   C817.025391,1133.669312 823.689941,1139.373535 832.515381,1142.728027  z"/>
<path fill="#2B454E" opacity="1.000000" stroke="none" d=" M887.255188,585.814453   C870.811035,577.107361 854.607361,568.269897 838.951172,557.900513   C841.473450,551.940491 845.815186,547.905334 851.081421,544.863281   C963.548462,479.896637 1076.000977,414.904602 1188.552734,350.085083   C1200.323364,343.306213 1212.732910,343.665100 1224.830078,349.935944   C1228.220947,351.693726 1231.399414,353.862640 1234.794434,355.611481   C1244.331543,360.524017 1250.519775,368.205261 1253.944214,378.625671   C1246.668213,373.781494 1240.387085,376.493805 1233.483032,380.571472   C1207.037109,396.190948 1180.297974,411.313721 1153.702271,426.680634   C1128.978394,440.965973 1104.325684,455.374542 1079.590820,469.640594   C1052.263916,485.401459 1024.846313,501.005157 997.528870,516.782349   C971.222473,531.975769 944.996948,547.309143 918.728333,562.568115   C911.416199,566.815552 903.843567,570.591370 896.836792,575.397034   C892.852051,578.130005 890.117920,581.750061 887.255188,585.814453  z"/>
<path fill="#2B464F" opacity="1.000000" stroke="none" d=" M1436.466675,824.239136   C1429.977783,808.685913 1434.348267,793.223328 1448.886475,782.471924   C1475.752441,762.603760 1526.883057,763.603699 1537.985229,815.686890   C1540.173218,825.951416 1541.736694,836.331116 1542.307251,846.788391   C1543.326172,865.466064 1549.541626,882.866333 1554.718994,900.548279   C1557.807983,911.098450 1560.605591,921.728882 1559.015747,933.325195   C1558.599243,941.047974 1553.748413,945.729309 1548.804565,950.135132   C1542.257568,955.969666 1534.484619,959.689575 1525.603027,961.992554   C1510.910645,964.312683 1496.804199,964.503906 1482.960205,959.178955   C1469.671387,954.067505 1461.585083,944.602722 1459.116821,930.791321   C1457.288818,920.563171 1455.069214,910.196411 1458.119873,899.325562   C1458.782227,891.595581 1459.305786,884.268372 1459.765625,876.528259   C1458.273804,873.820557 1458.515503,871.278076 1458.886353,868.833557   C1459.412231,865.366821 1459.819092,861.904724 1459.651855,858.406189   C1459.455200,854.290771 1460.837646,851.997620 1465.392578,851.422424   C1471.386353,850.665588 1475.787231,846.074158 1476.919067,840.496216   C1477.785889,836.224609 1475.974121,832.217346 1472.242188,830.460388   C1468.426147,828.663696 1465.525146,830.351318 1462.961060,833.111816   C1458.671021,837.730225 1457.441528,837.442017 1455.199829,831.333069   C1452.827759,824.868835 1451.600220,818.214172 1451.635864,811.311218   C1451.655396,807.511719 1451.876831,803.695251 1451.404541,799.341309   C1448.208862,800.513123 1446.886719,803.069519 1445.339722,805.238586   C1442.418701,809.334351 1440.389038,813.874329 1439.169312,818.779419   C1438.696045,820.682678 1438.530151,822.764404 1436.466675,824.239136  z"/>
<path fill="#f9fff5" opacity="1.000000" stroke="none" d=" M585.838196,660.343872   C590.230164,658.098267 593.618164,655.040466 596.708862,651.707458   C600.102966,648.047424 604.386719,645.218018 606.950623,640.432495   C606.167114,636.027649 607.225586,632.073364 608.248291,628.313110   C609.494629,623.730774 608.038513,621.507263 603.787231,620.179077   C601.595337,619.494202 599.484558,618.451355 597.396545,617.437988   C594.762878,616.159851 593.591919,614.053345 594.814148,611.326111   C598.870850,602.274841 602.055847,592.813354 607.700623,584.156921   C613.157349,583.789307 618.306396,584.455872 623.712402,583.290283   C631.535706,579.706787 634.481506,572.233459 639.076965,566.299438   C640.181030,564.873840 639.295349,562.748230 639.143311,560.926331   C638.633972,554.818848 637.894714,548.694580 639.749146,542.321289   C647.017151,536.487244 654.043091,530.953979 661.077942,525.432068   C661.927002,524.765625 663.291443,523.337952 663.761719,525.176758   C665.271118,531.078735 671.239014,531.274780 674.890259,534.382568   C675.630554,535.012695 676.661621,535.292480 677.535339,535.775757   C684.628357,539.699402 684.576782,539.676941 688.369141,532.266052   C691.322266,526.495056 694.459778,520.818481 697.430908,515.056458   C698.438171,513.102844 699.295715,511.920288 701.988770,512.736755   C706.568176,514.125244 711.289917,515.181763 716.025757,515.867493   C719.061462,516.307068 719.108032,517.425903 718.207397,519.813599   C715.512878,526.957397 713.027283,534.179871 710.345886,541.328796   C708.017700,547.535950 713.740112,549.466370 716.505798,552.811890   C718.956909,555.776917 721.029297,552.492126 722.882690,551.368103   C727.420349,548.616028 731.710449,545.458313 736.133545,542.513916   C738.361389,541.030884 739.847656,540.561279 740.098145,544.350342   C740.402222,548.949341 740.890564,553.684753 742.318787,558.025757   C744.418579,564.407837 742.070435,568.730530 737.188232,572.154419   C732.220947,575.638000 728.613403,580.509827 724.047119,584.361267   C721.013733,586.919739 721.852112,590.544495 721.222595,593.613647   C719.317688,602.900940 719.574036,602.953796 728.140564,607.577454   C728.433533,607.735657 728.741699,607.866577 729.029785,608.032776   C735.626648,611.837769 735.764282,611.895447 732.832153,618.987671   C729.977173,625.893066 726.767029,632.650940 723.781433,639.503479   C722.745911,641.880127 721.313599,643.299988 718.484253,643.026611   C714.370056,642.628967 710.176147,643.636536 706.099548,642.229065   C703.912415,641.473999 702.414185,642.428833 701.081909,644.314209   C697.736816,649.048218 694.589478,653.957886 690.432861,658.058533   C688.929749,659.541443 688.572632,661.415405 689.127686,663.126709   C691.124329,669.282898 688.851074,675.762634 690.770325,681.903015   C691.311462,683.634155 689.944946,684.734985 688.811951,685.655334   C681.997742,691.191040 675.120728,696.649353 668.281921,702.154968   C666.799011,703.348755 665.656372,702.694458 664.249268,701.859070   C658.679993,698.552795 652.991455,695.447815 647.410950,692.159729   C644.845825,690.648376 643.359314,691.034424 641.988403,693.849365   C639.005310,699.974609 635.643982,705.914551 632.535645,711.980652   C631.513977,713.974304 630.620544,715.000122 627.956909,714.246887   C622.559875,712.720764 617.000671,711.767944 611.251831,710.303101   C609.689453,708.378967 610.795654,706.867920 611.310242,705.359680   C613.505798,698.923767 615.898132,692.559631 618.312805,686.202698   C619.552979,682.937622 616.023621,675.873718 612.753845,674.774902   C611.060425,674.205750 609.890137,675.258911 608.684998,676.086487   C604.170532,679.186768 599.579834,682.170898 594.837036,684.903748   C591.354919,686.910156 589.705933,686.431580 589.093140,682.751770   C587.870605,675.410767 586.183228,668.132935 585.838196,660.343872  z"/>
<path fill="#FFAAA9" opacity="1.000000" stroke="none" d=" M1299.720215,914.937012   C1301.659668,919.642029 1304.761475,923.161621 1307.700928,927.161804   C1315.703125,939.976196 1324.889038,951.578003 1333.283203,963.729309   C1335.549561,967.010132 1338.015869,970.154968 1340.223999,973.472961   C1341.704712,975.697754 1342.800415,975.690002 1344.790649,973.862671   C1358.743286,961.052490 1372.782593,948.336060 1386.855957,935.658447   C1399.940796,923.871338 1413.021240,912.076904 1426.262207,900.466553   C1433.598267,894.033875 1442.060913,894.733582 1450.930176,897.808228   C1452.665527,899.982971 1452.509888,902.223267 1452.214844,904.332458   C1450.037964,919.891968 1447.124878,935.259338 1439.367065,949.221558   C1436.682861,954.052307 1433.817627,958.754333 1428.170776,961.379761   C1427.469116,961.532715 1427.080322,961.612000 1426.826172,961.444580   C1420.981934,957.594971 1420.887451,957.495728 1414.890503,962.470520   C1395.071899,978.910767 1375.590942,995.764587 1355.003906,1011.260193   C1350.886841,1014.359009 1346.657227,1017.316895 1342.114380,1019.766113   C1337.079956,1022.480347 1333.754028,1022.092285 1329.335327,1018.426086   C1325.053223,1014.873169 1321.616821,1010.544556 1319.129517,1005.642151   C1315.610107,998.704895 1310.734619,992.456482 1308.405762,984.521851   C1305.811157,979.546326 1303.306885,974.917786 1300.519775,970.106079   C1295.520996,965.090698 1293.129272,958.794556 1289.749023,953.130432   C1284.204712,943.840332 1279.359741,934.144104 1273.516113,925.021240   C1271.142090,921.315063 1268.180298,918.272339 1264.510742,915.814087   C1257.285889,910.974121 1250.720947,905.407776 1245.446533,898.382629   C1241.792847,893.516418 1240.338745,888.691040 1244.337524,883.338196   C1245.366455,881.960938 1245.660767,880.307800 1245.821289,878.630127   C1245.965698,877.121826 1246.461548,875.734009 1247.107178,874.355286   C1248.140015,872.150085 1251.491455,871.205322 1250.858398,868.233276   C1250.187012,865.080078 1247.916138,862.685181 1246.093140,860.109985   C1245.708862,859.567200 1245.234741,859.091675 1244.573975,858.277588   C1242.756348,854.907410 1240.859619,851.997009 1239.742798,848.697205   C1238.698242,845.610596 1238.842041,842.694946 1241.760742,840.778564   C1244.533813,838.957825 1247.126953,840.051880 1249.364624,842.111084   C1251.910034,844.453369 1254.360474,846.890686 1256.663208,849.987793   C1263.126465,857.859375 1268.289429,866.232727 1274.650024,873.698547   C1277.555420,877.108643 1278.316528,877.065674 1279.755737,872.924988   C1281.086792,869.095825 1282.672363,865.518982 1285.910400,862.891541   C1287.825684,861.337463 1289.940674,860.273193 1292.305054,861.503723   C1294.655640,862.726929 1294.347412,865.157349 1294.079468,867.272217   C1293.120605,874.842102 1292.304565,882.442932 1290.956543,889.946716   C1289.942627,895.590881 1291.348389,900.423706 1294.282959,905.070618   C1296.223755,908.143982 1298.647461,910.952515 1299.720215,914.937012  z"/>
<path fill="#f9fff5" opacity="1.000000" stroke="none" d=" M1443.428955,511.839539   C1443.244385,499.725067 1446.836670,489.244690 1454.021729,479.997925   C1458.942627,473.664825 1464.798340,468.638428 1473.271240,468.024323   C1475.540771,467.859863 1475.876465,466.704285 1476.028931,464.793854   C1477.566284,445.521301 1485.987793,429.943756 1501.357666,418.187866   C1507.202026,413.717651 1513.905518,412.186829 1521.130737,413.065948   C1526.238403,413.687408 1531.163086,419.916046 1531.974121,426.543854   C1532.153809,428.012665 1531.745483,429.825073 1533.419678,430.497772   C1535.193726,431.210663 1536.067871,429.430481 1537.024902,428.413025   C1539.986938,425.263977 1543.802246,423.525909 1547.745239,422.321320   C1555.332031,420.003662 1562.140015,425.491455 1562.956421,434.309692   C1563.124756,436.127991 1563.010132,437.974182 1562.995728,439.807281   C1562.977417,442.153290 1563.279053,443.492645 1566.046143,441.648102   C1568.661865,439.904633 1571.539673,438.555084 1574.609253,437.639679   C1577.974854,436.635956 1581.360474,436.296722 1584.014526,438.842926   C1586.696411,441.415710 1586.424805,444.846069 1585.413208,448.192322   C1582.894165,456.525024 1577.632202,462.840088 1570.364258,467.284363   C1558.888184,474.301788 1547.203125,480.979828 1535.558472,487.718536   C1516.867920,498.534729 1498.127686,509.265137 1479.428345,520.066162   C1466.196045,527.709351 1453.009888,535.432922 1439.773560,543.069153   C1436.164307,545.151367 1432.136475,545.345215 1428.125854,544.941895   C1424.677246,544.595154 1422.789429,541.127686 1423.492798,536.996277   C1425.204712,526.942383 1431.388062,520.128601 1439.555054,514.734375   C1440.793457,513.916321 1441.989990,513.034607 1443.428955,511.839539  z"/>
<path fill="#ece3ce" opacity="1.000000" stroke="none" d=" M1426.752808,961.337463   C1435.430664,956.236328 1439.226196,947.969055 1442.466064,939.632629   C1447.531738,926.598267 1450.349121,912.971863 1451.170898,898.523926   C1453.328369,898.376160 1455.442627,898.671692 1457.907715,898.945007   C1458.526123,905.870483 1458.172119,912.810669 1458.757568,919.778625   C1460.924805,945.569702 1471.144165,957.989563 1500.749023,961.975769   C1508.860352,963.067810 1517.012939,962.567566 1525.480957,960.855103   C1526.053589,961.026184 1526.199585,961.211487 1526.383545,961.748657   C1525.320801,966.153870 1523.361816,969.851074 1521.437256,973.933960   C1520.806030,974.773254 1520.320679,975.278076 1519.594727,976.039490   C1519.156006,976.427307 1518.966797,976.566345 1518.469849,976.876038   C1509.985962,980.287781 1502.750244,985.443237 1494.542603,988.636475   C1492.726318,989.343201 1490.975342,990.116760 1489.066162,990.422180   C1496.470215,989.336243 1503.868530,988.221863 1510.699463,984.787415   C1512.466553,983.898987 1514.171875,982.827209 1516.558594,982.601562   C1522.499390,989.071167 1526.803955,996.307007 1530.161377,1004.434692   C1522.673462,1010.353943 1514.914185,1015.222656 1506.363281,1018.963623   C1486.526367,1027.642090 1466.770874,1026.104126 1446.934570,1019.295959   C1443.501343,1018.117737 1440.161133,1016.668762 1436.439087,1015.258789   C1434.475342,1014.270508 1434.016235,1012.674133 1433.721924,1011.030396   C1431.042725,996.065125 1427.951538,981.168518 1426.190186,966.049316   C1426.017822,964.569580 1425.748413,963.093201 1426.752808,961.337463  z"/>
<path fill="#FE9190" opacity="1.000000" stroke="none" d=" M1525.990723,962.219360   C1525.961792,961.690186 1525.957153,961.520020 1525.929932,961.095398   C1536.418335,957.379761 1546.127197,952.674561 1553.243408,943.742249   C1555.544067,940.854431 1557.443481,937.811584 1558.778320,934.003784   C1564.545288,947.238342 1567.944336,961.450256 1572.848877,975.160767   C1574.188477,978.905640 1575.193970,982.779785 1576.693848,986.455505   C1580.135132,994.889221 1579.073608,1002.556580 1573.697632,1009.895569   C1566.246826,1020.067078 1559.015747,1030.399658 1551.415527,1040.844238   C1546.525879,1031.623901 1541.892456,1022.233276 1535.943970,1013.160522   C1535.913330,1008.758789 1538.265259,1005.634338 1540.271973,1002.441711   C1542.043823,999.622864 1542.092896,997.148743 1540.737061,994.064453   C1536.862061,985.250671 1532.456787,976.705994 1528.185791,968.090759   C1527.308350,966.320740 1526.159058,964.643066 1525.990723,962.219360  z"/>
<path fill="#FFAAA9" opacity="1.000000" stroke="none" d=" M1436.185547,824.641846   C1437.402466,820.268127 1438.552490,816.158569 1440.065674,812.187378   C1442.539062,805.696289 1446.485596,800.274231 1453.055786,795.912903   C1452.890503,809.852234 1451.794922,823.465210 1458.809082,836.398987   C1460.135498,834.640747 1461.094604,833.178589 1462.243042,831.884460   C1465.158447,828.599243 1468.646118,827.135498 1472.925903,829.089783   C1477.274170,831.075317 1478.946045,834.750427 1478.548706,839.260010   C1477.887207,846.765747 1472.024292,852.550293 1464.485596,852.873779   C1461.767212,852.990479 1461.128906,853.903992 1461.025024,856.305115   C1460.752197,862.612854 1460.300171,868.912842 1459.810547,875.665649   C1456.203613,876.097900 1452.699951,875.948975 1449.208740,876.095215   C1444.553223,876.290100 1441.776123,874.042847 1439.973145,869.937378   C1437.380005,864.032715 1437.238647,857.661987 1436.171631,851.467041   C1435.923828,850.028442 1436.322632,848.231323 1434.383789,847.776733   C1429.741455,846.688232 1430.902710,843.751038 1432.191406,840.922363   C1434.509277,835.834534 1437.501465,830.951416 1436.185547,824.641846  z"/>
<path fill="#e1e1e1" opacity="1.000000" stroke="none" d=" M506.639923,382.967957   C506.798279,394.561005 505.222137,405.988251 504.047729,417.451996   C503.882202,419.067719 503.226013,420.219513 502.171478,421.349213   C497.093719,426.788696 491.175873,431.429932 486.837372,437.578156   C485.879730,438.935303 484.443420,439.311890 482.879639,438.417908   C475.178467,434.015137 467.076019,430.277374 460.043762,424.331329   C464.722168,417.988434 469.782074,412.278534 475.429260,407.129822   C477.685913,405.072357 478.693573,402.545593 478.931183,399.687347   C479.684479,390.625641 480.457214,381.561432 480.937469,372.483124   C481.124847,368.940857 481.985748,369.107788 484.651581,370.698364   C491.763336,374.941559 499.063263,378.869354 506.639923,382.967957  z"/>
<path fill="#e1e1e1" opacity="1.000000" stroke="none" d=" M607.827393,583.695801   C604.430908,592.145935 600.905518,600.359924 597.210876,608.497009   C594.337769,614.824890 594.266907,614.727234 600.588074,617.362488   C603.788757,618.696899 607.622742,619.578979 609.837646,621.924194   C612.259338,624.488403 608.896179,628.007019 608.894348,631.267639   C608.892761,634.019592 608.019653,636.770935 607.239624,639.799683   C598.785217,636.732910 591.515442,631.772461 583.963318,627.330688   C581.760681,626.035339 581.889099,623.838074 582.252808,621.562256   C584.772461,605.797729 586.924011,610.727051 573.443787,602.856567   C569.465088,600.533447 568.441772,598.642944 570.704834,594.277588   C574.281189,587.379028 577.148621,580.101624 580.102844,572.897095   C581.459717,569.587891 582.789856,568.457825 586.289917,570.705627   C593.253235,575.177368 600.497559,579.211609 607.827393,583.695801  z"/>
<path fill="#e1e1e1" opacity="1.000000" stroke="none" d=" M585.645081,659.962524   C588.220459,666.962646 589.050293,674.190491 589.928955,681.380066   C590.398376,685.221130 591.441772,685.950989 594.705566,683.654602   C599.716492,680.128784 604.904053,676.853455 610.026794,673.487244   C610.695068,673.048096 611.422180,672.372070 612.124084,672.369446   C614.607666,672.359985 621.006104,682.555359 620.090637,685.053223   C617.125427,693.144531 614.085754,701.208618 611.035034,709.655273   C602.776550,706.416931 595.430054,701.228210 587.517395,697.071045   C584.810547,695.648926 585.501892,693.820679 586.189209,691.705139   C588.542664,684.460815 588.482605,684.517578 581.699463,680.839478   C577.030396,678.307800 572.490784,675.538513 567.863159,672.928955   C565.827209,671.781006 564.459656,670.028625 564.180054,667.845886   C563.463867,662.254700 562.481262,656.733582 561.130066,651.261108   C560.839539,650.084473 560.429382,648.427612 561.731689,647.575867   C562.841431,646.850037 563.947021,647.925415 564.913574,648.461975   C571.726807,652.244080 578.504333,656.090637 585.645081,659.962524  z"/>
<path fill="#e1e1e1" opacity="1.000000" stroke="none" d=" M426.962769,570.360107   C433.563782,566.893188 440.140228,563.815247 446.680634,560.662415   C448.705170,559.686523 449.725677,560.231934 450.260559,562.368103   C450.660583,563.965576 450.950867,565.817871 451.948792,567.001038   C457.983856,574.155762 455.813477,581.019958 451.889008,588.184021   C447.283691,596.590942 443.779205,605.580139 438.293396,613.855774   C430.508331,609.763489 423.097107,605.388733 415.519012,601.325134   C412.698303,599.812561 413.317535,598.293335 414.398071,596.137817   C418.630829,587.694031 422.757965,579.197327 426.962769,570.360107  z"/>
<path fill="#e1e1e1" opacity="1.000000" stroke="none" d=" M639.631958,541.973511   C640.346863,549.077576 639.243958,556.187439 640.918945,563.215210   C641.515625,565.718506 640.607605,567.849365 638.730469,569.916016   C635.537781,573.431030 632.737183,577.320129 629.959900,581.187073   C628.542542,583.160645 627.166504,584.419189 624.354004,583.027710   C618.299500,578.409973 611.582458,575.483459 605.316650,571.834106   C602.234436,570.039001 602.151855,568.736816 604.158875,566.210022   C606.929504,562.721924 609.088440,558.672546 612.199341,555.551331   C615.273010,552.467590 615.431091,549.173950 614.636536,545.539429   C613.419128,539.970886 614.283264,534.425415 613.875305,527.912842   C622.888916,532.887024 631.082153,537.408508 639.631958,541.973511  z"/>
<path fill="#e1e1e1" opacity="1.000000" stroke="none" d=" M419.686340,534.855225   C420.003479,547.021667 420.003296,559.048157 420.007721,571.545166   C411.371124,568.531555 403.841644,563.002075 395.618530,558.747498   C394.046997,557.934387 393.980408,556.403564 393.982239,554.858459   C393.994232,544.717834 394.065369,534.576355 393.946045,524.437134   C393.903870,520.854126 395.330841,520.950134 397.792206,522.367249   C404.973755,526.501953 412.175293,530.601807 419.686340,534.855225  z"/>
<path fill="#e1e1e1" opacity="1.000000" stroke="none" d=" M438.641174,470.936188   C444.100983,475.586121 449.171814,480.245575 454.336853,484.798187   C456.586365,486.780945 457.097961,488.531006 455.878387,491.644348   C453.486420,497.750458 451.927307,504.184906 450.080383,510.500092   C449.803986,511.445190 449.872772,512.501526 448.322083,512.967407   C440.573975,508.993042 433.187927,504.951538 425.823792,500.870544   C423.363617,499.507202 423.803345,497.318695 424.432312,495.183441   C426.207306,489.157715 427.653046,482.996948 429.958557,477.178650   C431.564636,473.125519 429.884552,470.999359 427.176453,468.771881   C423.783630,465.981262 420.431274,463.141388 417.061432,460.322784   C417.313721,459.943390 417.566040,459.563965 417.818359,459.184570   C424.642365,463.090485 431.466400,466.996399 438.641174,470.936188  z"/>
<path fill="#e1e1e1" opacity="1.000000" stroke="none" d=" M480.975830,601.459106   C482.312256,594.735718 484.278046,592.853882 490.162140,593.059875   C494.051697,593.196106 497.741150,592.291382 501.486237,591.650879   C502.852966,591.417175 503.785370,591.302490 503.963837,592.967285   C504.981384,602.459106 506.870422,611.871826 506.260742,621.765259   C498.134369,618.395935 491.022522,613.470642 483.463013,609.345581   C480.056519,607.486755 481.297516,604.529663 480.975830,601.459106  z"/>
<path fill="#e1e1e1" opacity="1.000000" stroke="none" d=" M415.453674,458.530975   C415.415802,458.470337 415.491577,458.591614 415.453674,458.530975  z"/>
<path fill="#739072" opacity="1.000000" stroke="none" d=" M490.098236,1418.806641   C489.819244,1418.961792 489.394684,1418.986206 489.204132,1419.080566   C485.310669,1423.558105 480.050751,1425.418091 474.739075,1427.836914   C467.736511,1430.461304 462.175201,1435.021973 455.401337,1437.974854   C451.010895,1432.179321 452.477325,1425.857788 453.505219,1419.726562   C453.867157,1417.567383 456.622803,1416.893555 458.474670,1415.827515   C472.008118,1408.036255 481.650269,1396.520508 489.618134,1383.395020   C489.947327,1382.852783 490.365173,1382.275513 489.854492,1381.161987   C487.659485,1383.599854 486.145203,1386.311401 484.404083,1388.842896   C478.020966,1398.123291 470.406921,1406.202881 461.055786,1412.537964   C459.066559,1413.885498 456.997406,1416.370361 454.426544,1415.093750   C451.792267,1413.785645 452.693542,1410.663086 452.677887,1408.263428   C452.545013,1387.896606 455.003235,1367.746582 458.003021,1347.655518   C460.981293,1327.708496 464.741882,1307.930054 471.509338,1288.779907   C469.697845,1290.058228 469.263153,1292.103149 468.634766,1293.985596   C461.905945,1314.142822 458.380219,1334.987549 455.363556,1355.943237   C453.560730,1368.467041 452.824280,1381.101074 451.361664,1393.658936   C451.157745,1395.409912 451.465149,1397.653076 449.215881,1398.263306   C447.182526,1398.814941 445.778473,1397.215820 444.579865,1395.872437   C439.773132,1390.484863 436.211700,1384.282471 433.075531,1377.819824   C432.355530,1376.336304 432.043152,1374.641846 430.784088,1373.394043   C431.616821,1380.298218 439.655304,1394.122803 446.432404,1399.521362   C449.875275,1402.264038 451.392761,1405.391235 451.417542,1409.774292   C451.469238,1418.920044 450.735107,1428.091431 452.110809,1437.215576   C452.414093,1439.227051 452.050201,1441.259644 449.413818,1442.268188   C438.944855,1448.003052 428.799744,1453.621460 418.841400,1459.553467   C416.250519,1461.096680 414.853058,1460.685669 413.040588,1458.611938   C407.501251,1452.274292 405.467621,1445.127075 407.568451,1436.916504   C408.346008,1433.877563 409.038177,1430.794434 410.115265,1427.858521   C413.561951,1418.463013 410.855499,1410.328857 405.194550,1402.791870   C399.018402,1394.569092 394.276367,1385.796265 393.888855,1375.209717   C393.284882,1358.710327 401.635803,1348.643188 418.058197,1348.306763   C433.070618,1347.999146 437.843140,1339.893188 440.078339,1327.690918   C442.428650,1314.860107 443.131592,1301.729004 447.023315,1289.180664   C450.010498,1279.548950 454.027802,1270.611572 462.817017,1264.655762   C478.344849,1254.133911 493.908783,1261.104126 497.110626,1279.557861   C498.901947,1289.882080 496.611511,1299.702148 495.460999,1309.708862   C494.362793,1319.260010 493.110596,1328.793457 491.995728,1338.342773   C491.200897,1345.151123 493.660675,1350.793457 498.756561,1355.183350   C503.995056,1359.695923 508.356140,1364.727905 510.573059,1371.681030   C512.192932,1380.146118 511.332458,1388.209106 507.803894,1396.313721   C507.525909,1396.882446 507.416229,1397.107666 507.138947,1397.662842   C506.637939,1398.632568 506.307220,1399.273804 505.910217,1400.274414   C502.786011,1405.268188 500.338562,1410.365967 495.222839,1413.775391   C494.935608,1413.971802 494.996490,1413.994507 494.991577,1413.962402   C494.790497,1414.202271 494.562073,1414.443604 494.117615,1414.823730   C493.589905,1415.047729 493.326752,1415.223511 493.076172,1415.754028   C492.261871,1417.004883 491.718292,1418.221924 490.098236,1418.806641  z"/>
<path fill="#FEFEFE" opacity="1.000000" stroke="none" d=" M1426.778076,960.770630   C1429.006714,978.950439 1432.524048,996.644226 1436.033936,1014.761475   C1434.401855,1027.503662 1432.703613,1039.834473 1430.930664,1052.582275   C1423.082275,1051.226074 1415.281128,1049.727051 1407.736206,1046.887329   C1398.710083,1043.490112 1389.374146,1040.911987 1380.157837,1038.025269   C1373.105591,1035.816406 1366.020996,1033.710938 1358.972900,1031.489258   C1357.141602,1030.912109 1355.417236,1030.774414 1353.337280,1031.853760   C1338.714233,1029.355713 1328.000488,1035.862915 1318.552124,1045.482544   C1314.834595,1049.267334 1311.978271,1053.751099 1308.208862,1059.424072   C1308.208862,1033.726318 1308.208862,1009.400757 1308.262207,984.625000   C1312.870239,992.090637 1317.412476,1000.013672 1321.990723,1007.915833   C1322.822754,1009.351868 1323.655884,1010.829224 1324.735107,1012.073547   C1334.123779,1022.897949 1336.868530,1022.315857 1346.338623,1015.808716   C1363.478516,1004.031677 1379.195801,990.451965 1395.268188,977.316895   C1403.107300,970.910278 1410.323242,963.722839 1418.794312,958.115051   C1423.303467,955.130066 1424.199463,955.554993 1426.778076,960.770630  z"/>
<path fill="#3a4d39" opacity="1.000000" stroke="none" d=" M506.668518,1398.332642   C509.466797,1389.991211 509.995209,1381.301880 510.770874,1372.228271   C514.322815,1359.559814 517.809265,1347.325439 519.441223,1334.630737   C520.712585,1324.740723 521.683716,1314.843994 522.033813,1304.880371   C522.265564,1298.284668 523.719421,1292.043335 528.245117,1286.960083   C535.916382,1278.343872 548.852356,1279.319580 555.075256,1289.075684   C560.390930,1297.409424 561.642761,1306.813110 560.708862,1316.373413   C557.271301,1351.565063 541.753601,1380.601196 514.916504,1403.447998   C510.203979,1407.459961 504.165985,1409.914917 498.374542,1413.070068   C499.018768,1408.340088 502.907928,1405.753052 505.991608,1402.713501   C525.215637,1383.765381 536.860779,1360.895752 542.041138,1334.531128   C544.212830,1323.478760 543.654358,1312.344727 543.532593,1301.214355   C543.519348,1300.002441 543.608215,1298.583984 542.181580,1297.560181   C542.285889,1310.803223 543.034912,1323.877441 540.283508,1336.833130   C535.619141,1358.796875 525.916016,1378.186401 511.257812,1395.131714   C510.093018,1396.478149 509.071655,1398.133911 506.668518,1398.332642  z"/>
<path fill="#2B464F" opacity="1.000000" stroke="none" d=" M1527.465332,1393.940796   C1528.651245,1398.046387 1529.644043,1402.087769 1530.202759,1406.188354   C1531.028931,1412.251343 1529.724976,1414.635010 1523.851074,1416.047485   C1519.932983,1416.989746 1519.957520,1418.507202 1520.817139,1421.829468   C1523.185669,1430.983643 1516.781128,1438.110229 1507.588989,1435.409424   C1490.102417,1430.271729 1472.124390,1426.741821 1455.144043,1419.925903   C1450.650635,1418.122192 1446.485840,1415.647705 1443.375488,1411.794189   C1440.526367,1408.264526 1440.938354,1405.542969 1444.733765,1403.039795   C1449.726685,1399.747192 1455.438843,1399.107056 1461.031006,1400.169556   C1464.144775,1400.760986 1467.251221,1400.672607 1470.585571,1401.530029   C1469.412964,1403.726685 1467.227783,1403.075928 1465.328857,1403.413696   C1464.361694,1403.585938 1463.171631,1403.524902 1462.811646,1404.655884   C1462.428955,1405.857788 1463.449463,1406.542480 1464.321655,1406.902466   C1479.042847,1412.981445 1493.847412,1418.681763 1510.253662,1414.424438   C1516.059082,1412.917969 1516.664429,1411.813843 1515.540039,1405.951294   C1515.072998,1403.516113 1514.030884,1401.159790 1514.574219,1398.244873   C1518.627808,1395.886719 1523.285400,1396.231567 1527.465332,1393.940796  z"/>
<path fill="#FEFEFE" opacity="1.000000" stroke="none" d=" M449.103882,1442.601685   C451.351532,1441.174561 451.218140,1439.108154 450.889282,1437.119263   C449.275879,1427.361084 449.908600,1417.525513 449.916687,1407.721802   C449.918640,1405.349243 449.641602,1403.581177 447.652283,1402.135742   C437.805542,1394.980835 433.052704,1384.352783 428.416382,1373.665405   C427.888000,1372.447388 427.372375,1370.901001 428.988007,1370.219849   C430.754639,1369.474976 431.585785,1370.696533 432.252106,1372.293945   C435.261139,1379.506714 438.756134,1386.458618 443.599915,1392.662720   C445.214447,1394.730591 446.842773,1396.736572 449.700897,1398.497437   C450.498932,1389.433838 451.056732,1380.905029 452.031982,1372.424072   C455.284149,1344.143311 459.171783,1315.978760 468.988037,1289.027222   C469.214020,1288.406738 469.430756,1287.781616 469.690704,1287.175171   C470.240936,1285.891479 470.974396,1284.572632 472.608612,1285.180420   C474.571228,1285.910156 474.018738,1287.378662 473.388367,1288.890625   C469.300598,1298.695312 466.796448,1308.969849 464.577148,1319.314819   C460.577667,1337.957520 457.732849,1356.769165 455.893677,1375.759277   C454.643799,1388.665039 453.747620,1401.553711 453.943817,1415.090454   C464.225922,1410.362793 471.495636,1402.717773 478.417175,1394.684692   C482.104248,1390.405518 485.097015,1385.620361 488.076111,1380.827393   C488.835175,1379.606079 489.444214,1377.146973 491.638428,1378.429810   C494.027313,1379.826660 492.260742,1381.571899 491.387238,1383.074341   C482.795258,1397.852051 471.820648,1410.328247 456.569000,1418.528442   C454.648834,1419.560913 453.919983,1420.589600 453.959991,1422.694458   C454.051758,1427.520386 453.834717,1432.356201 454.988892,1437.525879   C454.848267,1443.338135 453.779022,1444.250366 449.103882,1442.601685  z"/>
<path fill="#FFAAA9" opacity="1.000000" stroke="none" d=" M1515.246582,1397.692627   C1515.750000,1401.280273 1516.134155,1404.650269 1517.293701,1407.728149   C1518.942749,1412.105591 1516.826416,1413.805054 1513.196777,1415.026367   C1504.087524,1418.091553 1494.892822,1417.899170 1485.678833,1415.746704   C1478.548706,1414.081055 1471.600952,1411.769897 1464.911743,1408.797852   C1462.806763,1407.862915 1459.287598,1407.338501 1459.958252,1404.185425   C1460.524048,1401.525635 1463.743774,1402.131226 1465.980835,1401.894287   C1467.300049,1401.754395 1468.642334,1401.832520 1470.416138,1401.814697   C1476.468262,1401.899170 1482.081543,1401.898438 1487.687622,1402.097290   C1490.719604,1402.204712 1491.014404,1401.092407 1489.890015,1398.596436   C1488.810791,1396.200562 1488.056274,1393.658325 1487.121826,1390.844116   C1495.752686,1391.727539 1503.790771,1390.564331 1510.796875,1384.170166   C1515.835083,1387.388672 1514.776001,1392.654297 1515.246582,1397.692627  z"/>
<path fill="#e1e1e1" opacity="1.000000" stroke="none" d=" M837.051331,1396.080078   C845.771851,1409.711182 859.379700,1416.613770 874.354187,1421.290771   C879.461914,1422.886108 884.907349,1422.296997 890.597290,1421.213135   C883.897705,1427.444580 876.048035,1432.547363 866.850403,1434.843262   C861.431030,1436.196167 857.129028,1432.311646 852.709900,1429.818481   C843.782654,1424.782349 834.962158,1419.556641 826.027283,1414.534302   C819.607544,1410.925415 819.441589,1408.030396 825.544128,1403.951904   C829.336792,1401.417236 834.031372,1400.254395 837.051331,1396.080078  z"/>
<path fill="#FEFEFE" opacity="1.000000" stroke="none" d=" M1289.215088,1194.243896   C1290.716431,1189.783081 1290.050659,1185.185303 1291.060669,1180.904541   C1292.871582,1173.228882 1291.423828,1166.977905 1285.148804,1161.707153   C1281.864380,1158.948364 1280.317139,1154.655396 1278.463013,1150.772583   C1277.812012,1149.408936 1277.130127,1148.106567 1279.102295,1147.023438   C1281.399414,1145.761841 1281.475098,1147.668579 1282.073853,1148.859985   C1284.758057,1154.201172 1287.489746,1159.505859 1292.458130,1163.847656   C1296.581421,1152.721436 1294.300049,1139.615723 1304.358032,1129.544922   C1302.462402,1137.669067 1300.833862,1144.648804 1299.042969,1152.324097   C1306.726562,1151.255493 1313.038208,1147.800781 1319.261475,1144.297852   C1324.928589,1141.108032 1330.076904,1137.166870 1334.220703,1132.054321   C1335.138184,1130.922363 1336.023926,1129.289062 1337.769653,1130.779175   C1339.390991,1132.163086 1338.178223,1133.593750 1337.315308,1134.695068   C1331.542969,1142.062256 1323.900269,1147.035645 1315.570679,1150.936279   C1310.792969,1153.173584 1305.734253,1154.813232 1300.790649,1156.691895   C1299.605469,1157.142456 1298.293091,1157.063232 1297.951538,1158.904297   C1296.078247,1169.007324 1294.935425,1179.185669 1294.460938,1189.442749   C1294.453735,1189.597046 1294.953735,1189.774902 1295.603882,1189.946899   C1297.190918,1192.151733 1296.878296,1193.645752 1294.102661,1193.974487   C1292.550049,1194.158447 1290.995361,1194.325195 1289.215088,1194.243896  z"/>
<path fill="#FEFEFE" opacity="1.000000" stroke="none" d=" M506.252167,1398.202148   C523.496826,1380.712280 534.062561,1359.694824 538.955872,1335.767700   C541.534973,1323.156494 542.091858,1310.425171 540.157959,1297.645630   C539.911682,1296.017944 540.053894,1294.453125 541.934937,1294.149780   C543.762268,1293.855103 543.880371,1295.452148 544.144104,1296.788208   C546.032104,1306.352905 545.734497,1316.042480 544.691956,1325.577637   C541.888000,1351.222656 532.104126,1374.107056 515.832214,1394.151489   C510.486298,1400.736816 504.683197,1406.911255 498.093445,1412.720581   C497.420380,1413.904053 496.521027,1413.943970 495.275330,1413.968994   C498.261871,1409.473389 501.588043,1404.974976 504.968079,1400.124878   C505.564056,1399.468140 505.503174,1398.828491 506.026062,1398.236084   C506.259216,1398.088623 506.211639,1398.174438 506.252167,1398.202148  z"/>
<path fill="#FE9190" opacity="1.000000" stroke="none" d=" M1515.427490,1397.918945   C1513.890503,1393.536255 1512.761353,1389.031860 1511.370117,1384.272949   C1511.161255,1383.527466 1511.192383,1383.032593 1511.271606,1382.545654   C1511.793823,1379.340210 1508.592163,1375.362671 1510.979736,1373.361938   C1512.797729,1371.838501 1516.951172,1373.031738 1520.061279,1373.140381   C1523.063354,1373.245361 1525.935303,1372.573486 1529.219238,1371.931885   C1529.186401,1378.975708 1527.557495,1385.948364 1527.893921,1393.529297   C1524.779663,1398.187378 1520.101074,1397.342651 1515.427490,1397.918945  z"/>
<path fill="#FEFEFE" opacity="1.000000" stroke="none" d=" M474.844177,1427.929199   C479.036560,1425.038696 483.686340,1422.168579 488.674866,1419.236572   C487.861786,1424.990845 483.418427,1427.834229 474.844177,1427.929199  z"/>
<path fill="#FEFEFE" opacity="1.000000" stroke="none" d=" M680.026855,1247.238770   C681.613281,1248.363770 683.194580,1249.867798 684.893799,1251.677246   C681.959473,1252.663330 681.480286,1252.244141 680.026855,1247.238770  z"/>
<path fill="#FEFEFE" opacity="1.000000" stroke="none" d=" M1222.170898,1232.214355   C1222.412231,1231.633179 1222.842896,1231.304932 1223.551147,1230.936279   C1224.379639,1231.262451 1224.924072,1231.778198 1224.467896,1232.403198   C1223.899780,1233.181519 1223.082886,1232.946411 1222.170898,1232.214355  z"/>
<path fill="#FEFEFE" opacity="1.000000" stroke="none" d=" M490.204834,1418.966309   C490.690796,1418.057861 491.562347,1417.153809 492.720886,1416.118896   C493.059570,1417.677124 492.775421,1419.094116 490.204834,1418.966309  z"/>
<path fill="#FEFEFE" opacity="1.000000" stroke="none" d=" M1441.990723,1290.014648   C1442.509521,1290.333984 1442.753784,1290.838379 1443.034058,1291.636353   C1442.651733,1292.490723 1442.068604,1292.943481 1441.489380,1292.368286   C1440.787231,1291.671265 1441.136597,1290.874390 1441.990723,1290.014648  z"/>
<path fill="#FEFEFE" opacity="1.000000" stroke="none" d=" M1308.805054,1182.922729   C1309.338501,1182.246338 1310.294067,1181.586426 1311.590820,1180.828491   C1311.935669,1182.575439 1310.827637,1183.058838 1308.805054,1182.922729  z"/>
<path fill="#FEFEFE" opacity="1.000000" stroke="none" d=" M682.883545,1284.836670   C682.858215,1285.334229 682.678284,1285.605835 682.256531,1285.943970   C681.473816,1285.647461 681.022217,1285.178345 681.555359,1284.573730   C681.720337,1284.386719 682.325439,1284.587646 682.883545,1284.836670  z"/>
<path fill="#FEFEFE" opacity="1.000000" stroke="none" d=" M494.168213,1414.881836   C494.115723,1414.696655 494.297546,1414.400391 494.733032,1414.017090   C494.791962,1414.210449 494.597260,1414.490479 494.168213,1414.881836  z"/>
<path fill="#FEFFFF" opacity="1.000000" stroke="none" d=" M1239.552002,540.361389   C1220.655151,551.830933 1201.802002,562.904236 1182.872681,573.846069   C1114.289429,613.489807 1045.714233,653.148010 977.037231,692.628845   C968.814514,697.355957 961.946289,702.682007 959.606384,712.436218   C959.005005,714.943237 959.018616,717.376465 959.018250,719.847534   C958.989502,903.284302 958.983582,1086.721069 958.914734,1270.632324   C942.705566,1280.391724 926.566650,1289.692993 910.405396,1298.955200   C901.985596,1303.780518 898.002502,1301.442505 898.002380,1291.716797   C897.999451,1094.580933 898.004028,897.445129 897.987000,700.309265   C897.986206,691.153687 901.921204,684.327026 909.786682,679.785034   C1015.386780,618.805298 1120.996460,557.842163 1226.604614,496.876282   C1227.613647,496.293823 1228.596558,495.648010 1229.654785,495.172180   C1234.942993,492.794312 1238.719849,494.659485 1239.223022,500.436554   C1239.727295,506.226715 1239.531250,512.081421 1239.563599,517.908264   C1239.604248,525.240234 1239.565308,532.572632 1239.552002,540.361389  z"/>
<path fill="#2B454E" opacity="1.000000" stroke="none" d=" M1096.022949,524.004822   C1106.717773,517.913025 1117.139526,512.074524 1127.410400,505.981750   C1130.491821,504.153870 1133.957031,502.647827 1136.658447,504.784088   C1139.445190,506.987671 1138.246338,510.927002 1137.377441,514.111267   C1135.752808,520.064819 1131.053711,523.131958 1126.051758,525.988831   C1100.989990,540.303040 1075.953125,554.661743 1050.964722,569.103638   C1048.220825,570.689453 1045.479736,572.259033 1042.765259,570.011292   C1039.749023,567.513733 1040.524780,563.885071 1041.727173,560.792480   C1043.776123,555.522583 1047.633789,551.890259 1052.629395,549.076172   C1067.077393,540.937622 1081.350464,532.488098 1096.022949,524.004822  z"/>
<path fill="#2B454E" opacity="1.000000" stroke="none" d=" M1044.356323,1283.254639   C1056.866577,1274.660156 1070.452637,1267.636353 1083.570557,1259.817017   C1086.139648,1258.285645 1088.755859,1256.833008 1091.683594,1255.262939   C1091.566650,1269.713745 1077.370972,1289.167358 1063.725464,1293.952271   C1055.052124,1296.993774 1049.518921,1293.953247 1044.356323,1283.254639  z"/>
<path fill="#2B454E" opacity="1.000000" stroke="none" d=" M1001.609619,578.778442   C1004.713196,573.044312 1008.429077,568.485657 1014.618103,566.671997   C1018.154785,565.635620 1022.177734,568.109253 1022.942993,571.683044   C1024.878296,580.720825 1018.387878,593.309875 1009.856934,597.065186   C1003.875183,599.698425 999.260742,596.700317 998.964966,590.155090   C998.786682,586.209290 999.597168,582.568909 1001.609619,578.778442  z"/>
<path fill="#2B464F" opacity="1.000000" stroke="none" d=" M1074.970215,509.936096   C1073.974854,514.220581 1072.799316,517.984680 1068.894775,520.047668   C1065.214844,521.992065 1063.396118,520.910278 1062.950928,516.885498   C1062.375854,511.686066 1065.220825,508.217865 1069.026123,505.825073   C1072.490967,503.646393 1074.468262,505.905792 1074.970215,509.936096  z"/>
<path fill="#F3FDFC" opacity="1.000000" stroke="none" d=" M832.479553,1309.963257   C832.892700,1311.059448 832.944946,1312.134888 832.930542,1313.609985   C823.052734,1311.833496 814.116028,1307.416138 805.643982,1302.312744   C797.633667,1297.487427 791.456726,1294.903076 781.743103,1301.157349   C768.321899,1309.798950 751.907104,1308.909668 736.199524,1308.023193   C734.455872,1307.924805 733.748779,1306.985352 733.934448,1305.468018   C734.174194,1303.509399 735.866577,1303.980591 737.094971,1303.997192   C745.573486,1304.111450 754.035278,1304.445557 762.481445,1303.043091   C770.395691,1301.729004 777.884766,1299.489380 784.768738,1295.249878   C787.767334,1293.403076 788.577209,1292.504395 784.920349,1290.112183   C761.499573,1274.791138 739.762024,1257.314819 720.098694,1237.393311   C697.198608,1214.192505 678.900818,1187.551758 663.152039,1159.122070   C653.276917,1141.295288 644.629089,1122.876953 637.486755,1103.772095   C637.141052,1102.847412 636.952026,1101.848999 636.504700,1100.980347   C635.760437,1099.535156 635.830627,1098.302246 637.446777,1097.751587   C639.054688,1097.203735 639.705017,1098.294189 640.257629,1099.708862   C642.420166,1105.245239 644.636963,1110.763062 646.966736,1116.231201   C661.914673,1151.314819 680.709839,1184.131836 704.735657,1213.840210   C715.838989,1227.569824 727.887329,1240.390503 742.106689,1252.031616   C738.640564,1239.392944 736.262939,1227.129395 734.519104,1214.745361   C732.481567,1200.274536 731.006775,1185.743652 729.979553,1171.167114   C729.629150,1166.194458 729.222778,1161.223022 729.028381,1156.243652   C728.956970,1154.416504 728.132385,1151.495117 730.844360,1151.329956   C733.736694,1151.154175 732.892334,1154.081177 733.026794,1155.924316   C735.054504,1183.718872 737.069275,1211.516235 743.049622,1238.829956   C744.003906,1243.188477 745.405457,1247.452515 746.280212,1251.824219   C747.712708,1258.984497 753.725586,1262.136719 758.682251,1266.012329   C781.315552,1283.708984 805.030701,1299.663452 832.479553,1309.963257  z"/>
<path fill="#F3FDFC" opacity="1.000000" stroke="none" d=" M739.050781,1083.325928   C732.894897,1054.840942 730.507690,1026.243530 730.299927,997.508972   C730.173950,980.076050 730.872375,962.615906 732.662720,945.219849   C733.613831,935.978760 734.614929,926.755005 735.999512,917.571899   C736.171997,916.427673 736.520752,915.310852 736.723572,914.169922   C736.995850,912.638672 737.754395,911.644653 739.408875,912.045227   C741.124695,912.460754 741.134033,913.859619 740.841309,915.250854   C738.720459,925.331848 737.777832,935.557922 736.812805,945.798096   C734.750366,967.682312 734.165283,989.592407 734.832764,1011.556213   C735.575500,1035.996704 738.083496,1060.213135 743.681885,1084.424316   C742.297913,1084.382080 740.771362,1083.997314 739.050781,1083.325928  z"/>
<path fill="#385A64" opacity="1.000000" stroke="none" d=" M858.151245,780.660217   C865.779968,784.155029 868.621460,790.541809 869.868469,797.838318   C870.361389,800.722290 869.571838,803.391785 866.675598,805.094727   C863.458130,806.986450 860.173096,808.044800 856.842896,805.817444   C851.494446,802.240173 847.976257,797.261841 847.102051,790.803894   C846.113647,783.502075 849.869812,780.009033 858.151245,780.660217  z"/>
<path fill="#385A64" opacity="1.000000" stroke="none" d=" M853.711975,705.657471   C859.547180,704.418457 862.831848,707.862000 865.580383,711.607544   C867.300842,713.952148 868.232666,716.923218 869.280579,719.702942   C871.057068,724.415466 869.702637,727.857300 865.247437,730.558289   C860.984741,733.142639 857.736389,731.963989 854.541199,728.995667   C850.677734,725.406494 847.837891,721.170776 847.096375,715.861450   C846.293457,710.112732 847.847229,707.786377 853.711975,705.657471  z"/>
<path fill="#F1F4F4" opacity="1.000000" stroke="none" d=" M1495.304932,1215.522217   C1495.898926,1228.398926 1496.614136,1240.829224 1497.376465,1253.256470   C1498.576782,1272.824097 1499.802002,1292.390137 1501.035400,1311.955566   C1501.212158,1314.761597 1501.493408,1317.561157 1501.483521,1320.402954   C1497.651855,1300.327881 1493.581299,1280.294556 1490.067139,1260.163940   C1487.436768,1245.097046 1479.589233,1233.122925 1469.122925,1222.631226   C1465.787109,1219.287476 1465.124878,1216.448730 1466.459595,1211.822144   C1473.874756,1186.117676 1480.837891,1160.282593 1487.977661,1134.498291   C1488.326172,1133.239746 1488.882690,1132.038696 1489.579834,1130.580566   C1491.194092,1131.348389 1491.409546,1132.869507 1491.445068,1134.364380   C1491.726440,1146.185791 1493.046875,1157.942139 1493.597534,1169.748413   C1494.179199,1182.213745 1495.377319,1194.644165 1495.714600,1207.130127   C1495.786865,1209.810913 1495.178955,1212.419922 1495.304932,1215.522217  z"/>
<path fill="#336600" opacity="1.000000" stroke="none" d=" M1495.418213,1215.682617   C1493.375854,1187.725464 1491.588989,1159.480957 1489.809570,1130.793457   C1490.942017,1120.059570 1494.777222,1110.448120 1497.314819,1100.511719   C1497.718750,1098.929688 1498.910278,1098.191284 1500.472778,1097.682617   C1513.434937,1093.461792 1526.208374,1088.761353 1538.308350,1082.395264   C1538.819946,1082.126099 1539.514526,1082.204468 1540.541016,1082.063965   C1537.793701,1088.216064 1532.839600,1091.597290 1527.987671,1094.928711   C1523.628052,1097.921997 1519.276855,1101.099243 1514.037964,1102.487549   C1507.927979,1104.106567 1507.947510,1109.909790 1506.277710,1114.274902   C1504.937988,1117.777100 1504.312500,1121.629150 1502.813354,1125.125854   C1498.009766,1136.330200 1496.376221,1147.942139 1496.880615,1160.128662   C1497.410278,1172.929077 1496.987671,1185.768555 1496.992920,1198.590942   C1496.995239,1204.228149 1497.275757,1209.884888 1495.418213,1215.682617  z"/>
<path fill="#FEFEFE" opacity="1.000000" stroke="none" d=" M1525.698242,962.098022   C1532.372925,973.044861 1537.565308,984.836975 1543.286133,996.364929   C1544.127563,998.060303 1543.325073,999.226196 1542.636719,1000.494202   C1540.508545,1004.414185 1538.320801,1008.301941 1536.000732,1012.506653   C1534.084595,1010.296570 1532.323975,1007.782043 1530.319580,1005.029297   C1525.773804,997.708862 1521.471680,990.626526 1517.032593,983.216125   C1515.716187,980.344299 1517.340088,978.527588 1518.793823,976.322876   C1519.060913,976.048401 1519.002319,975.997559 1519.029053,976.024536   C1519.412842,975.594055 1519.511353,975.042175 1519.774902,974.259521   C1521.760498,970.127563 1523.595215,966.231689 1525.698242,962.098022  z"/>
<path fill="#e1e1e1" opacity="1.000000" stroke="none" d=" M539.777344,437.309753   C549.171875,434.657196 559.274963,440.315918 563.457214,447.925812   C569.604919,459.112122 569.001892,470.966675 566.508484,482.841522   C562.036804,504.137604 551.402344,522.047974 535.580383,536.853271   C527.562500,544.355957 518.186218,549.644653 507.296143,551.689209   C499.089722,553.229919 487.437225,549.201660 482.134277,537.290161   C482.765808,535.783569 483.962708,535.216919 485.226471,534.761169   C509.145325,526.135620 523.379761,507.867554 533.437988,485.726166   C540.102905,471.054352 542.880371,455.672455 539.418457,439.585449   C539.276550,438.925934 539.347961,438.264435 539.777344,437.309753  z"/>
<path fill="#FEFFFF" opacity="1.000000" stroke="none" d=" M539.592285,436.999695   C545.035339,455.306763 541.096069,472.518677 533.373779,489.162231   C526.486328,504.006317 516.834473,516.810791 503.687775,526.693726   C497.417969,531.406982 490.375305,534.828552 482.373230,536.937256   C477.266998,524.660461 478.479095,512.319519 481.880493,499.992096   C486.460266,483.394196 494.852509,468.791168 506.461029,456.268860   C515.314148,446.718750 525.701904,439.048615 539.592285,436.999695  z"/>
<path fill="#FEFFFF" opacity="1.000000" stroke="none" d=" M1299.911377,914.799072   C1296.396118,911.235901 1293.641846,906.710754 1291.038330,902.095459   C1288.031738,896.765686 1289.440552,891.122437 1290.136230,885.587341   C1290.918579,879.362000 1291.999268,873.174622 1292.819702,866.953491   C1293.022949,865.411987 1293.810303,863.389160 1292.017944,862.397034   C1290.020508,861.291321 1288.273438,862.455017 1286.623413,863.775146   C1283.009399,866.666565 1281.915405,870.856567 1280.513184,874.933533   C1280.048218,876.285217 1280.111816,878.298035 1278.433105,878.642334   C1276.527222,879.033142 1275.599976,877.109253 1274.646118,875.865417   C1268.497437,867.847229 1262.448242,859.752625 1256.241943,851.381226   C1259.536133,847.184875 1259.988037,842.565735 1259.789673,837.610962   C1259.543335,831.458435 1259.774902,825.288330 1259.716797,819.126465   C1259.664185,813.530884 1258.850830,813.015137 1254.087036,815.757141   C1233.739258,827.469482 1213.397583,839.192871 1193.069580,850.939514   C1145.925903,878.181702 1098.754883,905.376099 1051.605713,932.608582   C1037.044556,941.018860 1022.514709,949.484680 1007.895081,957.791687   C1003.978271,960.017273 1002.116516,962.901978 1002.224304,967.436096   C1002.398499,974.759888 1002.241882,982.091431 1002.279236,989.419434   C1002.309082,995.280823 1003.197937,995.854797 1008.157166,992.920898   C1021.055725,985.289856 1034.078735,977.875671 1047.057617,970.384155   C1098.540771,940.667297 1149.987549,910.887390 1201.526123,881.266174   C1214.373535,873.882263 1227.176758,866.419373 1240.031982,859.047668   C1241.453857,858.232300 1242.793701,857.114868 1244.973999,857.440063   C1248.621704,860.263245 1250.277100,864.130554 1252.425903,867.654663   C1253.698242,869.741394 1252.849121,871.018982 1250.952148,872.090088   C1248.235474,873.624023 1246.998169,876.082458 1247.094727,879.149292   C1247.161865,881.279175 1246.423584,882.909668 1245.031494,884.540833   C1242.184814,887.876648 1242.232422,891.469238 1244.731567,895.077148   C1249.020874,901.269226 1253.811035,907.057312 1260.233032,911.080627   C1268.500732,916.260315 1274.628784,923.152649 1279.218750,931.725830   C1285.967773,944.331116 1293.074707,956.744629 1300.133057,969.581299   C1300.160522,977.415100 1300.022217,984.907227 1300.018066,992.399536   C1299.995972,1032.728149 1299.940430,1073.056885 1300.062988,1113.385132   C1300.087769,1121.526367 1296.765747,1127.251831 1289.794922,1131.266357   C1243.672241,1157.828735 1197.579590,1184.443359 1151.485718,1211.055786   C1092.206909,1245.280762 1032.936035,1279.519531 973.662170,1313.753052   C967.740845,1317.172974 967.008850,1316.789795 967.008545,1310.013672   C966.999939,1113.370239 966.999390,916.726746 967.009399,720.083252   C967.009827,712.133057 970.442627,706.094299 977.364746,702.096741   C1049.429565,660.478943 1121.490479,618.854187 1193.560913,577.246155   C1227.002441,557.939514 1260.466309,538.671387 1293.911011,519.370422   C1299.050415,516.404541 1300.000732,516.818115 1300.000732,522.354004   C1299.999878,653.004639 1299.988037,783.655334 1299.911377,914.799072  z"/>
<path fill="#F3FDFC" opacity="1.000000" stroke="none" d=" M1309.971191,1101.015137   C1316.124390,1085.575684 1323.002563,1070.920898 1331.578613,1057.107666   C1332.365967,1055.839355 1333.166260,1054.573853 1334.046997,1053.370361   C1334.897827,1052.207520 1335.682373,1050.495239 1337.546631,1051.626587   C1339.794800,1052.990723 1338.178101,1054.572144 1337.368164,1055.809937   C1329.094604,1068.454346 1322.458252,1081.952393 1316.540894,1095.811401   C1313.769165,1102.303101 1311.351929,1108.946045 1308.461060,1115.475830   C1308.380981,1110.726318 1307.294434,1105.904663 1309.971191,1101.015137  z"/>
<path fill="#e1e1e1" opacity="1.000000" stroke="none" d=" M671.750854,572.301880   C685.209717,566.920288 696.348145,575.045227 697.956238,587.942993   C700.990845,612.283264 683.368042,643.838989 660.921265,654.000061   C647.793091,659.942871 635.659424,654.913757 633.015259,641.455872   C635.787231,637.424316 639.962952,635.476807 643.380249,632.599548   C660.357544,618.305054 670.682678,600.708984 670.716919,577.945129   C670.719604,576.136292 670.488342,574.268372 671.750854,572.301880  z"/>
<path fill="#FEFFFF" opacity="1.000000" stroke="none" d=" M671.630066,572.038208   C673.611755,602.975098 659.082886,624.981018 633.356873,641.021484   C630.519348,631.180542 632.165588,621.664551 635.774475,612.369263   C642.671631,594.604614 653.145752,579.961121 671.630066,572.038208  z"/>
<path fill="#000000" opacity="1.000000" stroke="none" d=" M1245.266235,857.210815   C1217.860840,873.324036 1190.365356,889.064941 1162.924438,904.900574   C1110.638184,935.074097 1058.386230,965.307068 1006.109192,995.496704   C1001.878235,997.940002 1001.041382,997.424622 1001.012512,992.403748   C1000.964539,984.076355 1001.269165,975.736572 1000.901001,967.425293   C1000.670654,962.224731 1002.715027,959.288269 1007.138550,956.754639   C1041.538208,937.051331 1075.807617,917.120544 1110.139648,897.298767   C1158.113892,869.600464 1206.105103,841.931641 1254.095825,814.261841   C1260.490479,810.574890 1260.995483,810.868591 1260.999634,818.008667   C1261.004517,826.169739 1260.864136,834.334167 1261.062500,842.490417   C1261.153320,846.225342 1259.897339,848.921509 1256.437256,850.948242   C1253.391846,848.176453 1251.172974,844.798767 1247.950684,842.361877   C1246.087891,840.953125 1244.058960,840.249634 1241.994263,841.747559   C1239.966187,843.218811 1239.652344,845.259888 1240.731934,847.515259   C1242.225342,850.635437 1243.711426,853.759216 1245.266235,857.210815  z"/>
<path fill="#739072" opacity="1.000000" stroke="none" d=" M1518.705322,975.868042   C1519.117920,978.332458 1517.733276,980.141296 1516.967773,982.533020   C1507.629272,988.759277 1497.355103,991.053894 1486.419800,991.214050   C1497.459351,986.823792 1507.438354,980.314697 1518.705322,975.868042  z"/>
<path fill="#739072" opacity="1.000000" stroke="none" d=" M1519.626831,974.172791   C1519.841064,974.641846 1519.756226,975.260132 1519.363647,975.965027   C1518.416992,975.360352 1518.957886,974.854675 1519.626831,974.172791  z"/>
<path fill="#3a4d39" opacity="1.000000" stroke="none" d=" M505.987946,1398.184448   C506.000458,1398.556152 505.741730,1399.023560 505.252441,1399.632080   C505.253510,1399.275513 505.485107,1398.777954 505.987946,1398.184448  z"/>
<path fill="#000000" opacity="1.000000" stroke="none" d=" M1139.020996,1012.031433   C1178.274170,989.370728 1217.191895,966.858826 1256.106689,944.341736   C1259.129883,942.592468 1261.073975,942.550781 1261.029663,946.917419   C1260.934937,956.244751 1260.920898,965.574707 1261.039062,974.901489   C1261.088501,978.804382 1258.944824,980.912109 1255.882324,982.677551   C1221.096436,1002.730469 1186.332031,1022.820496 1151.557861,1042.893677   C1104.435547,1070.094727 1057.321167,1097.309692 1010.152771,1124.430664   C1007.674622,1125.855469 1005.052490,1129.108398 1002.238281,1127.539062   C999.325012,1125.914307 1001.170715,1122.044189 1001.075684,1119.204346   C1000.841858,1112.215942 1001.237488,1105.203613 1000.917542,1098.222046   C1000.695679,1093.380493 1002.772888,1090.641357 1006.811218,1088.318604   C1050.810669,1063.010986 1094.737793,1037.577881 1139.020996,1012.031433  z"/>
<path fill="#739072" opacity="1.000000" stroke="none" d=" M1094.271484,815.740662   C1086.356323,814.836609 1081.247559,809.900635 1077.158936,803.966003   C1069.476562,792.814575 1068.009399,780.157837 1068.721313,766.954041   C1070.296021,737.748779 1082.018921,712.546204 1099.297729,689.668579   C1110.638306,674.653320 1124.259033,661.977173 1141.843628,654.501526   C1156.415527,648.306641 1171.096558,646.554749 1184.501221,657.490295   C1192.913330,664.352966 1196.581787,673.981506 1197.945679,684.391907   C1201.895508,714.540771 1191.723022,741.069763 1176.427856,766.207397   C1176.168945,766.632935 1175.920166,767.064636 1175.364136,767.612976   C1172.707520,764.915894 1173.658203,761.363770 1173.083740,758.183594   C1170.125122,741.805908 1159.922729,735.847351 1144.589844,742.457581   C1122.535767,751.965637 1106.408447,767.438904 1098.448608,790.562988   C1096.444336,796.385925 1094.950317,802.334961 1095.267944,808.612305   C1095.383911,810.902954 1095.637939,813.278198 1094.271484,815.740662  z"/>
<path fill="#336600" opacity="1.000000" stroke="none" d=" M1198.295166,1100.327148   C1168.426025,1117.629150 1138.846680,1134.704956 1109.266479,1151.779053   C1108.263672,1152.357788 1107.268066,1152.952759 1106.238037,1153.479736   C1101.160156,1156.077271 1098.190796,1154.540527 1098.076904,1148.846313   C1097.880615,1139.020142 1097.831421,1129.182007 1098.100952,1119.359253   C1098.255127,1113.740234 1100.833862,1109.076416 1105.852295,1106.170776   C1138.711060,1087.146484 1171.580688,1068.140381 1204.481689,1049.189087   C1209.351929,1046.383789 1212.121216,1048.019409 1212.164673,1053.581543   C1212.236206,1062.744751 1211.877075,1071.922241 1212.278564,1081.068359   C1212.637817,1089.251953 1209.354858,1094.765137 1202.064209,1098.148926   C1200.861450,1098.707153 1199.742432,1099.445557 1198.295166,1100.327148  z"/>
<path fill="#ece3ce" opacity="1.000000" stroke="none" d=" M1094.252686,816.300171   C1092.420288,792.878174 1101.525635,773.791809 1117.658936,758.234070   C1127.278809,748.957397 1138.844849,741.664001 1152.360229,739.069214   C1165.755371,736.497437 1172.147461,746.040649 1173.907471,755.010620   C1174.668579,758.889160 1174.700439,762.910828 1175.062500,767.299988   C1161.780884,788.478271 1145.092896,805.384277 1121.747559,814.662354   C1112.917725,818.171448 1103.835327,819.458374 1094.252686,816.300171  z"/>
<path fill="#336600" opacity="1.000000" stroke="none" d=" M1009.063171,1050.107300   C1002.961853,1052.633789 1000.967773,1051.444092 1000.836853,1045.529907   C1000.692566,1039.015747 1003.181335,1034.081909 1009.007141,1030.728760   C1035.880127,1015.262146 1062.671997,999.654236 1089.556519,984.207947   C1091.537720,983.069580 1093.666992,980.957703 1096.381958,982.696045   C1099.084839,984.426636 1098.887085,987.232056 1098.717041,989.888428   C1098.339478,995.783569 1095.590210,1000.149658 1090.378662,1003.150330   C1063.359375,1018.707520 1036.392212,1034.355103 1009.063171,1050.107300  z"/>
<path fill="#336600" opacity="1.000000" stroke="none" d=" M1023.841370,890.854492   C1045.978394,878.093628 1067.792236,865.507202 1089.590942,852.894775   C1091.774536,851.631409 1094.021973,850.029724 1096.520264,851.417664   C1099.315308,852.970520 1098.836792,856.002686 1098.695923,858.599548   C1098.400024,864.053345 1096.152344,868.501404 1091.278931,871.315857   C1063.869385,887.145081 1036.466309,902.985779 1009.019043,918.749451   C1003.739563,921.781616 1000.914795,919.978760 1000.813843,913.866028   C1000.704834,907.265686 1003.573608,902.437927 1009.292297,899.204590   C1014.053162,896.512817 1018.774902,893.751892 1023.841370,890.854492  z"/>
<path fill="#ece3ce" opacity="1.000000" stroke="none" d=" M1116.252197,712.400757   C1120.511353,703.324402 1125.779053,695.598999 1134.696167,691.109009   C1145.875244,685.479980 1155.237549,690.297180 1154.709595,703.907227   C1154.159790,718.082336 1147.692749,730.002625 1135.951660,738.609497   C1133.791504,740.193054 1131.456177,741.335266 1128.880249,742.126831   C1120.254272,744.777527 1113.536865,740.166687 1112.979004,731.189758   C1112.581177,724.786743 1113.437500,718.622009 1116.252197,712.400757  z"/>
</svg>